<mxfile host="app.diagrams.net" modified="2023-05-27T18:05:51.151Z" agent="Mozilla/5.0 (Windows NT 10.0; Win64; x64) AppleWebKit/537.36 (KHTML, like Gecko) Chrome/113.0.0.0 Safari/537.36" etag="C7OZIf7D99y7NueFYzcv" version="21.3.4" type="device">
  <diagram name="Page-1" id="BB83m_yvTzUi4F-m9Fvq">
    <mxGraphModel dx="824" dy="-336" grid="1" gridSize="10" guides="1" tooltips="1" connect="1" arrows="1" fold="1" page="1" pageScale="1" pageWidth="850" pageHeight="1100" math="0" shadow="0">
      <root>
        <mxCell id="0" />
        <mxCell id="1" parent="0" />
        <mxCell id="BOGz9dv89ooAanh70R54-1" value="Space Company" style="text;html=1;strokeColor=none;fillColor=none;align=center;verticalAlign=middle;whiteSpace=wrap;rounded=0;fontSize=16;" parent="1" vertex="1">
          <mxGeometry x="1630" y="1110" width="60" height="30" as="geometry" />
        </mxCell>
        <mxCell id="BOGz9dv89ooAanh70R54-2" value="Country" style="rounded=0;whiteSpace=wrap;html=1;fontSize=16;" parent="1" vertex="1">
          <mxGeometry x="1880" y="1160" width="120" height="40" as="geometry" />
        </mxCell>
        <mxCell id="BOGz9dv89ooAanh70R54-3" value="Name" style="rounded=0;whiteSpace=wrap;html=1;fontSize=16;" parent="1" vertex="1">
          <mxGeometry x="1760" y="1160" width="120" height="40" as="geometry" />
        </mxCell>
        <mxCell id="BOGz9dv89ooAanh70R54-4" value="CEO" style="rounded=0;whiteSpace=wrap;html=1;fontSize=16;" parent="1" vertex="1">
          <mxGeometry x="1640" y="1302" width="120" height="40" as="geometry" />
        </mxCell>
        <mxCell id="BOGz9dv89ooAanh70R54-5" value="Private&lt;br&gt;Space Company" style="text;html=1;strokeColor=none;fillColor=none;align=center;verticalAlign=middle;whiteSpace=wrap;rounded=0;fontSize=16;" parent="1" vertex="1">
          <mxGeometry x="1590" y="1252" width="160" height="30" as="geometry" />
        </mxCell>
        <mxCell id="BOGz9dv89ooAanh70R54-6" value="Gov" style="rounded=0;whiteSpace=wrap;html=1;fontSize=16;" parent="1" vertex="1">
          <mxGeometry x="1640" y="1422" width="120" height="40" as="geometry" />
        </mxCell>
        <mxCell id="BOGz9dv89ooAanh70R54-7" value="Public &lt;br&gt;Space Company" style="text;html=1;strokeColor=none;fillColor=none;align=center;verticalAlign=middle;whiteSpace=wrap;rounded=0;fontSize=16;" parent="1" vertex="1">
          <mxGeometry x="1600" y="1372" width="140" height="30" as="geometry" />
        </mxCell>
        <mxCell id="BOGz9dv89ooAanh70R54-8" value="Program" style="text;html=1;strokeColor=none;fillColor=none;align=center;verticalAlign=middle;whiteSpace=wrap;rounded=0;fontSize=16;" parent="1" vertex="1">
          <mxGeometry x="1630" y="1502" width="60" height="30" as="geometry" />
        </mxCell>
        <mxCell id="BOGz9dv89ooAanh70R54-9" value="Description" style="rounded=0;whiteSpace=wrap;html=1;fontSize=16;" parent="1" vertex="1">
          <mxGeometry x="1880" y="1552" width="120" height="40" as="geometry" />
        </mxCell>
        <mxCell id="BOGz9dv89ooAanh70R54-10" value="Company" style="rounded=0;whiteSpace=wrap;html=1;fontSize=16;" parent="1" vertex="1">
          <mxGeometry x="1760" y="1552" width="120" height="40" as="geometry" />
        </mxCell>
        <mxCell id="BOGz9dv89ooAanh70R54-11" value="Mission" style="text;html=1;strokeColor=none;fillColor=none;align=center;verticalAlign=middle;whiteSpace=wrap;rounded=0;fontSize=16;" parent="1" vertex="1">
          <mxGeometry x="1630" y="1632" width="60" height="30" as="geometry" />
        </mxCell>
        <mxCell id="BOGz9dv89ooAanh70R54-12" value="Description" style="rounded=0;whiteSpace=wrap;html=1;fontSize=16;" parent="1" vertex="1">
          <mxGeometry x="1880" y="1682" width="120" height="40" as="geometry" />
        </mxCell>
        <mxCell id="BOGz9dv89ooAanh70R54-13" value="Budget" style="rounded=0;whiteSpace=wrap;html=1;fontSize=16;" parent="1" vertex="1">
          <mxGeometry x="1760" y="1682" width="120" height="40" as="geometry" />
        </mxCell>
        <mxCell id="BOGz9dv89ooAanh70R54-14" value="End_Date" style="rounded=0;whiteSpace=wrap;html=1;fontSize=16;" parent="1" vertex="1">
          <mxGeometry x="2000" y="1682" width="120" height="40" as="geometry" />
        </mxCell>
        <mxCell id="BOGz9dv89ooAanh70R54-15" value="Conc_Date" style="rounded=0;whiteSpace=wrap;html=1;fontSize=16;" parent="1" vertex="1">
          <mxGeometry x="2110" y="1682" width="120" height="40" as="geometry" />
        </mxCell>
        <mxCell id="BOGz9dv89ooAanh70R54-16" value="Status" style="rounded=0;whiteSpace=wrap;html=1;fontSize=16;" parent="1" vertex="1">
          <mxGeometry x="2230" y="1682" width="120" height="40" as="geometry" />
        </mxCell>
        <mxCell id="BOGz9dv89ooAanh70R54-17" value="Event" style="text;html=1;strokeColor=none;fillColor=none;align=center;verticalAlign=middle;whiteSpace=wrap;rounded=0;fontSize=16;" parent="1" vertex="1">
          <mxGeometry x="1630" y="1772" width="60" height="30" as="geometry" />
        </mxCell>
        <mxCell id="BOGz9dv89ooAanh70R54-18" value="Date" style="rounded=0;whiteSpace=wrap;html=1;fontSize=16;" parent="1" vertex="1">
          <mxGeometry x="1880" y="1822" width="120" height="40" as="geometry" />
        </mxCell>
        <mxCell id="BOGz9dv89ooAanh70R54-19" value="Name" style="rounded=0;whiteSpace=wrap;html=1;fontSize=16;" parent="1" vertex="1">
          <mxGeometry x="1760" y="1822" width="120" height="40" as="geometry" />
        </mxCell>
        <mxCell id="BOGz9dv89ooAanh70R54-20" value="Status" style="rounded=0;whiteSpace=wrap;html=1;fontSize=16;" parent="1" vertex="1">
          <mxGeometry x="2000" y="1822" width="120" height="40" as="geometry" />
        </mxCell>
        <mxCell id="BOGz9dv89ooAanh70R54-21" value="Launch" style="text;html=1;strokeColor=none;fillColor=none;align=center;verticalAlign=middle;whiteSpace=wrap;rounded=0;fontSize=16;" parent="1" vertex="1">
          <mxGeometry x="1630" y="1912" width="60" height="30" as="geometry" />
        </mxCell>
        <mxCell id="BOGz9dv89ooAanh70R54-22" value="LaunchV_ID" style="rounded=0;whiteSpace=wrap;html=1;fontSize=16;" parent="1" vertex="1">
          <mxGeometry x="1880" y="1962" width="120" height="40" as="geometry" />
        </mxCell>
        <mxCell id="BOGz9dv89ooAanh70R54-23" value="LaunchS_ID" style="rounded=0;whiteSpace=wrap;html=1;fontSize=16;" parent="1" vertex="1">
          <mxGeometry x="1760" y="1962" width="120" height="40" as="geometry" />
        </mxCell>
        <mxCell id="BOGz9dv89ooAanh70R54-24" value="Launch Site" style="text;html=1;strokeColor=none;fillColor=none;align=center;verticalAlign=middle;whiteSpace=wrap;rounded=0;fontSize=16;" parent="1" vertex="1">
          <mxGeometry x="1630" y="2052" width="60" height="30" as="geometry" />
        </mxCell>
        <mxCell id="BOGz9dv89ooAanh70R54-25" value="Comp_ID" style="rounded=0;whiteSpace=wrap;html=1;fontSize=16;" parent="1" vertex="1">
          <mxGeometry x="1880" y="2102" width="120" height="40" as="geometry" />
        </mxCell>
        <mxCell id="BOGz9dv89ooAanh70R54-26" value="Location" style="rounded=0;whiteSpace=wrap;html=1;fontSize=16;" parent="1" vertex="1">
          <mxGeometry x="1760" y="2102" width="120" height="40" as="geometry" />
        </mxCell>
        <mxCell id="BOGz9dv89ooAanh70R54-27" value="Launch Vehicle" style="text;html=1;strokeColor=none;fillColor=none;align=center;verticalAlign=middle;whiteSpace=wrap;rounded=0;fontSize=16;" parent="1" vertex="1">
          <mxGeometry x="1630" y="2207" width="60" height="30" as="geometry" />
        </mxCell>
        <mxCell id="BOGz9dv89ooAanh70R54-28" value="DevCost" style="rounded=0;whiteSpace=wrap;html=1;fontSize=16;" parent="1" vertex="1">
          <mxGeometry x="1880" y="2252" width="120" height="40" as="geometry" />
        </mxCell>
        <mxCell id="BOGz9dv89ooAanh70R54-29" value="LaunchCost" style="rounded=0;whiteSpace=wrap;html=1;fontSize=16;" parent="1" vertex="1">
          <mxGeometry x="1760" y="2252" width="120" height="40" as="geometry" />
        </mxCell>
        <mxCell id="BOGz9dv89ooAanh70R54-30" value="Veh_ID" style="rounded=0;whiteSpace=wrap;html=1;fontSize=16;" parent="1" vertex="1">
          <mxGeometry x="2000" y="2252" width="120" height="40" as="geometry" />
        </mxCell>
        <mxCell id="BOGz9dv89ooAanh70R54-31" value="Fuel" style="rounded=0;whiteSpace=wrap;html=1;fontSize=16;" parent="1" vertex="1">
          <mxGeometry x="2120" y="2252" width="120" height="40" as="geometry" />
        </mxCell>
        <mxCell id="BOGz9dv89ooAanh70R54-32" value="Type" style="rounded=0;whiteSpace=wrap;html=1;fontSize=16;" parent="1" vertex="1">
          <mxGeometry x="2240" y="2252" width="120" height="40" as="geometry" />
        </mxCell>
        <mxCell id="BOGz9dv89ooAanh70R54-33" value="Range" style="rounded=0;whiteSpace=wrap;html=1;fontSize=16;" parent="1" vertex="1">
          <mxGeometry x="2360" y="2252" width="120" height="40" as="geometry" />
        </mxCell>
        <mxCell id="BOGz9dv89ooAanh70R54-34" value="Vehicle" style="text;html=1;strokeColor=none;fillColor=none;align=center;verticalAlign=middle;whiteSpace=wrap;rounded=0;fontSize=16;" parent="1" vertex="1">
          <mxGeometry x="1630" y="2362" width="60" height="30" as="geometry" />
        </mxCell>
        <mxCell id="BOGz9dv89ooAanh70R54-35" value="Owner" style="rounded=0;whiteSpace=wrap;html=1;fontSize=16;" parent="1" vertex="1">
          <mxGeometry x="1880" y="2412" width="120" height="40" as="geometry" />
        </mxCell>
        <mxCell id="BOGz9dv89ooAanh70R54-36" value="Name" style="rounded=0;whiteSpace=wrap;html=1;fontSize=16;" parent="1" vertex="1">
          <mxGeometry x="1760" y="2412" width="120" height="40" as="geometry" />
        </mxCell>
        <mxCell id="BOGz9dv89ooAanh70R54-37" value="Size" style="rounded=0;whiteSpace=wrap;html=1;fontSize=16;" parent="1" vertex="1">
          <mxGeometry x="2000" y="2412" width="120" height="40" as="geometry" />
        </mxCell>
        <mxCell id="BOGz9dv89ooAanh70R54-38" value="Mass" style="rounded=0;whiteSpace=wrap;html=1;fontSize=16;" parent="1" vertex="1">
          <mxGeometry x="2120" y="2412" width="120" height="40" as="geometry" />
        </mxCell>
        <mxCell id="BOGz9dv89ooAanh70R54-39" value="Manufacturer" style="rounded=0;whiteSpace=wrap;html=1;fontSize=16;" parent="1" vertex="1">
          <mxGeometry x="2240" y="2412" width="120" height="40" as="geometry" />
        </mxCell>
        <mxCell id="BOGz9dv89ooAanh70R54-40" value="Person" style="text;html=1;strokeColor=none;fillColor=none;align=center;verticalAlign=middle;whiteSpace=wrap;rounded=0;fontSize=16;" parent="1" vertex="1">
          <mxGeometry x="1635" y="2502" width="60" height="30" as="geometry" />
        </mxCell>
        <mxCell id="BOGz9dv89ooAanh70R54-41" value="Lname" style="rounded=0;whiteSpace=wrap;html=1;fontSize=16;" parent="1" vertex="1">
          <mxGeometry x="1885" y="2552" width="120" height="40" as="geometry" />
        </mxCell>
        <mxCell id="BOGz9dv89ooAanh70R54-42" value="Fname" style="rounded=0;whiteSpace=wrap;html=1;fontSize=16;" parent="1" vertex="1">
          <mxGeometry x="1765" y="2552" width="120" height="40" as="geometry" />
        </mxCell>
        <mxCell id="BOGz9dv89ooAanh70R54-43" value="Birth" style="rounded=0;whiteSpace=wrap;html=1;fontSize=16;" parent="1" vertex="1">
          <mxGeometry x="2005" y="2552" width="120" height="40" as="geometry" />
        </mxCell>
        <mxCell id="BOGz9dv89ooAanh70R54-44" value="Nationality" style="rounded=0;whiteSpace=wrap;html=1;fontSize=16;" parent="1" vertex="1">
          <mxGeometry x="2125" y="2552" width="120" height="40" as="geometry" />
        </mxCell>
        <mxCell id="BOGz9dv89ooAanh70R54-45" value="Astronaut" style="text;html=1;strokeColor=none;fillColor=none;align=center;verticalAlign=middle;whiteSpace=wrap;rounded=0;fontSize=16;" parent="1" vertex="1">
          <mxGeometry x="1635" y="2632" width="60" height="30" as="geometry" />
        </mxCell>
        <mxCell id="BOGz9dv89ooAanh70R54-46" value="Num_Missions" style="rounded=0;whiteSpace=wrap;html=1;fontSize=16;" parent="1" vertex="1">
          <mxGeometry x="1765" y="2682" width="120" height="40" as="geometry" />
        </mxCell>
        <mxCell id="BOGz9dv89ooAanh70R54-47" value="Speciality" style="text;html=1;strokeColor=none;fillColor=none;align=center;verticalAlign=middle;whiteSpace=wrap;rounded=0;fontSize=16;" parent="1" vertex="1">
          <mxGeometry x="1635" y="2782" width="60" height="30" as="geometry" />
        </mxCell>
        <mxCell id="BOGz9dv89ooAanh70R54-48" value="Description" style="rounded=0;whiteSpace=wrap;html=1;fontSize=16;" parent="1" vertex="1">
          <mxGeometry x="1765" y="2832" width="120" height="40" as="geometry" />
        </mxCell>
        <mxCell id="BOGz9dv89ooAanh70R54-49" value="Propulsion" style="rounded=0;whiteSpace=wrap;html=1;fontSize=16;" parent="1" vertex="1">
          <mxGeometry x="1750" y="3122" width="120" height="40" as="geometry" />
        </mxCell>
        <mxCell id="BOGz9dv89ooAanh70R54-50" value="Spacecraft" style="text;html=1;strokeColor=none;fillColor=none;align=center;verticalAlign=middle;whiteSpace=wrap;rounded=0;fontSize=16;" parent="1" vertex="1">
          <mxGeometry x="1635" y="3082" width="60" height="30" as="geometry" />
        </mxCell>
        <mxCell id="BOGz9dv89ooAanh70R54-51" value="Purpose" style="rounded=0;whiteSpace=wrap;html=1;fontSize=16;" parent="1" vertex="1">
          <mxGeometry x="1870" y="3122" width="120" height="40" as="geometry" />
        </mxCell>
        <mxCell id="BOGz9dv89ooAanh70R54-52" value="Description" style="rounded=0;whiteSpace=wrap;html=1;fontSize=16;" parent="1" vertex="1">
          <mxGeometry x="2360" y="2412" width="120" height="40" as="geometry" />
        </mxCell>
        <mxCell id="BOGz9dv89ooAanh70R54-53" value="Module" style="text;html=1;strokeColor=none;fillColor=none;align=center;verticalAlign=middle;whiteSpace=wrap;rounded=0;fontSize=16;" parent="1" vertex="1">
          <mxGeometry x="1639" y="4006" width="60" height="30" as="geometry" />
        </mxCell>
        <mxCell id="BOGz9dv89ooAanh70R54-54" value="Type" style="rounded=0;whiteSpace=wrap;html=1;fontSize=16;" parent="1" vertex="1">
          <mxGeometry x="1759" y="4046" width="120" height="40" as="geometry" />
        </mxCell>
        <mxCell id="BOGz9dv89ooAanh70R54-55" value="Description" style="rounded=0;whiteSpace=wrap;html=1;fontSize=16;" parent="1" vertex="1">
          <mxGeometry x="1879" y="4046" width="120" height="40" as="geometry" />
        </mxCell>
        <mxCell id="BOGz9dv89ooAanh70R54-56" value="Rover" style="text;html=1;strokeColor=none;fillColor=none;align=center;verticalAlign=middle;whiteSpace=wrap;rounded=0;fontSize=16;" parent="1" vertex="1">
          <mxGeometry x="1630" y="3232" width="60" height="30" as="geometry" />
        </mxCell>
        <mxCell id="BOGz9dv89ooAanh70R54-57" value="Autonomy" style="rounded=0;whiteSpace=wrap;html=1;fontSize=16;" parent="1" vertex="1">
          <mxGeometry x="1760" y="3282" width="120" height="40" as="geometry" />
        </mxCell>
        <mxCell id="BOGz9dv89ooAanh70R54-58" value="Space Probe" style="text;html=1;strokeColor=none;fillColor=none;align=center;verticalAlign=middle;whiteSpace=wrap;rounded=0;fontSize=16;" parent="1" vertex="1">
          <mxGeometry x="1630" y="3402" width="60" height="30" as="geometry" />
        </mxCell>
        <mxCell id="BOGz9dv89ooAanh70R54-59" value="Comm_Type" style="rounded=0;whiteSpace=wrap;html=1;fontSize=16;" parent="1" vertex="1">
          <mxGeometry x="1760" y="3452" width="120" height="40" as="geometry" />
        </mxCell>
        <mxCell id="BOGz9dv89ooAanh70R54-60" value="Satellite" style="text;html=1;strokeColor=none;fillColor=none;align=center;verticalAlign=middle;whiteSpace=wrap;rounded=0;fontSize=16;" parent="1" vertex="1">
          <mxGeometry x="1630" y="3562" width="60" height="30" as="geometry" />
        </mxCell>
        <mxCell id="BOGz9dv89ooAanh70R54-61" value="Orbit_Type" style="rounded=0;whiteSpace=wrap;html=1;fontSize=16;" parent="1" vertex="1">
          <mxGeometry x="1880" y="3612" width="120" height="40" as="geometry" />
        </mxCell>
        <mxCell id="BOGz9dv89ooAanh70R54-62" value="Perigee" style="rounded=0;whiteSpace=wrap;html=1;fontSize=16;" parent="1" vertex="1">
          <mxGeometry x="2000" y="3612" width="120" height="40" as="geometry" />
        </mxCell>
        <mxCell id="BOGz9dv89ooAanh70R54-63" value="Apogee" style="rounded=0;whiteSpace=wrap;html=1;fontSize=16;" parent="1" vertex="1">
          <mxGeometry x="2120" y="3612" width="120" height="40" as="geometry" />
        </mxCell>
        <mxCell id="BOGz9dv89ooAanh70R54-64" value="Inclination" style="rounded=0;whiteSpace=wrap;html=1;fontSize=16;" parent="1" vertex="1">
          <mxGeometry x="2240" y="3612" width="120" height="40" as="geometry" />
        </mxCell>
        <mxCell id="BOGz9dv89ooAanh70R54-65" value="Period" style="rounded=0;whiteSpace=wrap;html=1;fontSize=16;" parent="1" vertex="1">
          <mxGeometry x="2360" y="3612" width="120" height="40" as="geometry" />
        </mxCell>
        <mxCell id="BOGz9dv89ooAanh70R54-66" value="TLE" style="rounded=0;whiteSpace=wrap;html=1;fontSize=16;" parent="1" vertex="1">
          <mxGeometry x="2480" y="3612" width="120" height="40" as="geometry" />
        </mxCell>
        <mxCell id="BOGz9dv89ooAanh70R54-67" value="Latitude" style="rounded=0;whiteSpace=wrap;html=1;fontSize=16;" parent="1" vertex="1">
          <mxGeometry x="2600" y="3612" width="120" height="40" as="geometry" />
        </mxCell>
        <mxCell id="BOGz9dv89ooAanh70R54-68" value="Longitude" style="rounded=0;whiteSpace=wrap;html=1;fontSize=16;" parent="1" vertex="1">
          <mxGeometry x="2720" y="3612" width="120" height="40" as="geometry" />
        </mxCell>
        <mxCell id="BOGz9dv89ooAanh70R54-69" value="Altitude" style="rounded=0;whiteSpace=wrap;html=1;fontSize=16;" parent="1" vertex="1">
          <mxGeometry x="2840" y="3612" width="120" height="40" as="geometry" />
        </mxCell>
        <mxCell id="BOGz9dv89ooAanh70R54-70" value="Speed" style="rounded=0;whiteSpace=wrap;html=1;fontSize=16;" parent="1" vertex="1">
          <mxGeometry x="2960" y="3612" width="120" height="40" as="geometry" />
        </mxCell>
        <mxCell id="BOGz9dv89ooAanh70R54-71" value="Crewed Spacecraft" style="text;html=1;strokeColor=none;fillColor=none;align=center;verticalAlign=middle;whiteSpace=wrap;rounded=0;fontSize=16;" parent="1" vertex="1">
          <mxGeometry x="1629" y="3712" width="60" height="30" as="geometry" />
        </mxCell>
        <mxCell id="BOGz9dv89ooAanh70R54-72" value="Min_Capacity" style="rounded=0;whiteSpace=wrap;html=1;fontSize=16;" parent="1" vertex="1">
          <mxGeometry x="1759" y="3762" width="121" height="40" as="geometry" />
        </mxCell>
        <mxCell id="BOGz9dv89ooAanh70R54-73" value="Max_Capacity" style="rounded=0;whiteSpace=wrap;html=1;fontSize=16;" parent="1" vertex="1">
          <mxGeometry x="1879" y="3762" width="120" height="40" as="geometry" />
        </mxCell>
        <mxCell id="BOGz9dv89ooAanh70R54-74" value="Space Station&lt;br&gt;" style="text;html=1;strokeColor=none;fillColor=none;align=center;verticalAlign=middle;whiteSpace=wrap;rounded=0;fontSize=16;" parent="1" vertex="1">
          <mxGeometry x="1629" y="3862" width="60" height="30" as="geometry" />
        </mxCell>
        <mxCell id="BOGz9dv89ooAanh70R54-75" value="Space Station&lt;br&gt;has&lt;br&gt;Module" style="text;html=1;strokeColor=none;fillColor=none;align=center;verticalAlign=middle;whiteSpace=wrap;rounded=0;fontSize=16;" parent="1" vertex="1">
          <mxGeometry x="1593" y="4142" width="166" height="30" as="geometry" />
        </mxCell>
        <mxCell id="BOGz9dv89ooAanh70R54-76" value="" style="group" parent="1" vertex="1" connectable="0">
          <mxGeometry x="1639" y="4046" width="120" height="40" as="geometry" />
        </mxCell>
        <mxCell id="BOGz9dv89ooAanh70R54-77" value="Module_ID" style="rounded=0;whiteSpace=wrap;html=1;fontSize=16;" parent="BOGz9dv89ooAanh70R54-76" vertex="1">
          <mxGeometry width="120" height="40" as="geometry" />
        </mxCell>
        <mxCell id="BOGz9dv89ooAanh70R54-78" value="" style="endArrow=none;html=1;rounded=0;fontSize=12;startSize=8;endSize=8;curved=1;" parent="BOGz9dv89ooAanh70R54-76" edge="1">
          <mxGeometry width="50" height="50" relative="1" as="geometry">
            <mxPoint x="20" y="30" as="sourcePoint" />
            <mxPoint x="100" y="30" as="targetPoint" />
          </mxGeometry>
        </mxCell>
        <mxCell id="BOGz9dv89ooAanh70R54-79" value="" style="group" parent="1" vertex="1" connectable="0">
          <mxGeometry x="1645" y="4202" width="120" height="40" as="geometry" />
        </mxCell>
        <mxCell id="BOGz9dv89ooAanh70R54-80" value="Craft_ID" style="rounded=0;whiteSpace=wrap;html=1;fontSize=16;" parent="BOGz9dv89ooAanh70R54-79" vertex="1">
          <mxGeometry width="120" height="40" as="geometry" />
        </mxCell>
        <mxCell id="BOGz9dv89ooAanh70R54-81" value="" style="endArrow=none;html=1;rounded=0;fontSize=12;startSize=8;endSize=8;curved=1;" parent="BOGz9dv89ooAanh70R54-79" edge="1">
          <mxGeometry width="50" height="50" relative="1" as="geometry">
            <mxPoint x="20" y="30" as="sourcePoint" />
            <mxPoint x="100" y="30" as="targetPoint" />
          </mxGeometry>
        </mxCell>
        <mxCell id="BOGz9dv89ooAanh70R54-82" value="" style="group" parent="1" vertex="1" connectable="0">
          <mxGeometry x="1760" y="4202" width="120" height="40" as="geometry" />
        </mxCell>
        <mxCell id="BOGz9dv89ooAanh70R54-83" value="Module_ID" style="rounded=0;whiteSpace=wrap;html=1;fontSize=16;" parent="BOGz9dv89ooAanh70R54-82" vertex="1">
          <mxGeometry width="120" height="40" as="geometry" />
        </mxCell>
        <mxCell id="BOGz9dv89ooAanh70R54-84" value="" style="endArrow=none;html=1;rounded=0;fontSize=12;startSize=8;endSize=8;curved=1;" parent="BOGz9dv89ooAanh70R54-82" edge="1">
          <mxGeometry width="50" height="50" relative="1" as="geometry">
            <mxPoint x="20" y="30" as="sourcePoint" />
            <mxPoint x="100" y="30" as="targetPoint" />
          </mxGeometry>
        </mxCell>
        <mxCell id="BOGz9dv89ooAanh70R54-85" value="" style="group" parent="1" vertex="1" connectable="0">
          <mxGeometry x="1639" y="3912" width="120" height="40" as="geometry" />
        </mxCell>
        <mxCell id="BOGz9dv89ooAanh70R54-86" value="Craft_ID" style="rounded=0;whiteSpace=wrap;html=1;fontSize=16;" parent="BOGz9dv89ooAanh70R54-85" vertex="1">
          <mxGeometry width="120" height="40" as="geometry" />
        </mxCell>
        <mxCell id="BOGz9dv89ooAanh70R54-87" value="" style="endArrow=none;html=1;rounded=0;fontSize=12;startSize=8;endSize=8;curved=1;" parent="BOGz9dv89ooAanh70R54-85" edge="1">
          <mxGeometry width="50" height="50" relative="1" as="geometry">
            <mxPoint x="20" y="30" as="sourcePoint" />
            <mxPoint x="100" y="30" as="targetPoint" />
          </mxGeometry>
        </mxCell>
        <mxCell id="BOGz9dv89ooAanh70R54-88" style="edgeStyle=none;curved=1;rounded=0;orthogonalLoop=1;jettySize=auto;html=1;exitX=0.75;exitY=0;exitDx=0;exitDy=0;fontSize=12;startSize=8;endSize=8;" parent="1" edge="1">
          <mxGeometry relative="1" as="geometry">
            <mxPoint x="1728.9999999999998" y="3762" as="sourcePoint" />
            <mxPoint x="1728.9999999999998" y="3762" as="targetPoint" />
          </mxGeometry>
        </mxCell>
        <mxCell id="BOGz9dv89ooAanh70R54-89" value="" style="group" parent="1" vertex="1" connectable="0">
          <mxGeometry x="1640" y="3762" width="120" height="40" as="geometry" />
        </mxCell>
        <mxCell id="BOGz9dv89ooAanh70R54-90" value="Craft_ID" style="rounded=0;whiteSpace=wrap;html=1;fontSize=16;" parent="BOGz9dv89ooAanh70R54-89" vertex="1">
          <mxGeometry width="120" height="40" as="geometry" />
        </mxCell>
        <mxCell id="BOGz9dv89ooAanh70R54-91" value="" style="endArrow=none;html=1;rounded=0;fontSize=12;startSize=8;endSize=8;curved=1;" parent="BOGz9dv89ooAanh70R54-89" edge="1">
          <mxGeometry width="50" height="50" relative="1" as="geometry">
            <mxPoint x="20" y="30" as="sourcePoint" />
            <mxPoint x="100" y="30" as="targetPoint" />
          </mxGeometry>
        </mxCell>
        <mxCell id="BOGz9dv89ooAanh70R54-92" value="" style="group" parent="1" vertex="1" connectable="0">
          <mxGeometry x="1640" y="3612" width="120" height="40" as="geometry" />
        </mxCell>
        <mxCell id="BOGz9dv89ooAanh70R54-93" value="Craft_ID" style="rounded=0;whiteSpace=wrap;html=1;fontSize=16;" parent="BOGz9dv89ooAanh70R54-92" vertex="1">
          <mxGeometry width="120" height="40" as="geometry" />
        </mxCell>
        <mxCell id="BOGz9dv89ooAanh70R54-94" value="" style="endArrow=none;html=1;rounded=0;fontSize=12;startSize=8;endSize=8;curved=1;" parent="BOGz9dv89ooAanh70R54-92" edge="1">
          <mxGeometry width="50" height="50" relative="1" as="geometry">
            <mxPoint x="20" y="30" as="sourcePoint" />
            <mxPoint x="100" y="30" as="targetPoint" />
          </mxGeometry>
        </mxCell>
        <mxCell id="BOGz9dv89ooAanh70R54-95" value="" style="group" parent="1" vertex="1" connectable="0">
          <mxGeometry x="1640" y="3452" width="120" height="40" as="geometry" />
        </mxCell>
        <mxCell id="BOGz9dv89ooAanh70R54-96" value="Craft_ID" style="rounded=0;whiteSpace=wrap;html=1;fontSize=16;" parent="BOGz9dv89ooAanh70R54-95" vertex="1">
          <mxGeometry width="120" height="40" as="geometry" />
        </mxCell>
        <mxCell id="BOGz9dv89ooAanh70R54-97" value="" style="endArrow=none;html=1;rounded=0;fontSize=12;startSize=8;endSize=8;curved=1;" parent="BOGz9dv89ooAanh70R54-95" edge="1">
          <mxGeometry width="50" height="50" relative="1" as="geometry">
            <mxPoint x="20" y="30" as="sourcePoint" />
            <mxPoint x="100" y="30" as="targetPoint" />
          </mxGeometry>
        </mxCell>
        <mxCell id="BOGz9dv89ooAanh70R54-98" value="" style="group" parent="1" vertex="1" connectable="0">
          <mxGeometry x="1640" y="3282" width="120" height="40" as="geometry" />
        </mxCell>
        <mxCell id="BOGz9dv89ooAanh70R54-99" value="Veh_ID" style="rounded=0;whiteSpace=wrap;html=1;fontSize=16;" parent="BOGz9dv89ooAanh70R54-98" vertex="1">
          <mxGeometry width="120" height="40" as="geometry" />
        </mxCell>
        <mxCell id="BOGz9dv89ooAanh70R54-100" value="" style="endArrow=none;html=1;rounded=0;fontSize=12;startSize=8;endSize=8;curved=1;" parent="BOGz9dv89ooAanh70R54-98" edge="1">
          <mxGeometry width="50" height="50" relative="1" as="geometry">
            <mxPoint x="20" y="30" as="sourcePoint" />
            <mxPoint x="100" y="30" as="targetPoint" />
          </mxGeometry>
        </mxCell>
        <mxCell id="BOGz9dv89ooAanh70R54-101" value="" style="group" parent="1" vertex="1" connectable="0">
          <mxGeometry x="1630" y="3122" width="120" height="40" as="geometry" />
        </mxCell>
        <mxCell id="BOGz9dv89ooAanh70R54-102" value="COSPAR_ID" style="rounded=0;whiteSpace=wrap;html=1;fontSize=16;" parent="BOGz9dv89ooAanh70R54-101" vertex="1">
          <mxGeometry width="120" height="40" as="geometry" />
        </mxCell>
        <mxCell id="BOGz9dv89ooAanh70R54-103" value="" style="group" parent="1" vertex="1" connectable="0">
          <mxGeometry x="1645" y="2832" width="120" height="40" as="geometry" />
        </mxCell>
        <mxCell id="BOGz9dv89ooAanh70R54-104" value="Name" style="rounded=0;whiteSpace=wrap;html=1;fontSize=16;" parent="BOGz9dv89ooAanh70R54-103" vertex="1">
          <mxGeometry width="120" height="40" as="geometry" />
        </mxCell>
        <mxCell id="BOGz9dv89ooAanh70R54-105" value="" style="endArrow=none;html=1;rounded=0;fontSize=12;startSize=8;endSize=8;curved=1;" parent="BOGz9dv89ooAanh70R54-103" edge="1">
          <mxGeometry width="50" height="50" relative="1" as="geometry">
            <mxPoint x="20" y="30" as="sourcePoint" />
            <mxPoint x="100" y="30" as="targetPoint" />
          </mxGeometry>
        </mxCell>
        <mxCell id="BOGz9dv89ooAanh70R54-106" value="" style="group" parent="1" vertex="1" connectable="0">
          <mxGeometry x="1650" y="2682" width="120" height="40" as="geometry" />
        </mxCell>
        <mxCell id="BOGz9dv89ooAanh70R54-107" value="Per_ID" style="rounded=0;whiteSpace=wrap;html=1;fontSize=16;" parent="BOGz9dv89ooAanh70R54-106" vertex="1">
          <mxGeometry width="120" height="40" as="geometry" />
        </mxCell>
        <mxCell id="BOGz9dv89ooAanh70R54-108" value="" style="endArrow=none;html=1;rounded=0;fontSize=12;startSize=8;endSize=8;curved=1;" parent="BOGz9dv89ooAanh70R54-106" edge="1">
          <mxGeometry width="50" height="50" relative="1" as="geometry">
            <mxPoint x="20" y="30" as="sourcePoint" />
            <mxPoint x="100" y="30" as="targetPoint" />
          </mxGeometry>
        </mxCell>
        <mxCell id="BOGz9dv89ooAanh70R54-109" value="" style="group" parent="1" vertex="1" connectable="0">
          <mxGeometry x="1650" y="2552" width="120" height="40" as="geometry" />
        </mxCell>
        <mxCell id="BOGz9dv89ooAanh70R54-110" value="Per_ID" style="rounded=0;whiteSpace=wrap;html=1;fontSize=16;" parent="BOGz9dv89ooAanh70R54-109" vertex="1">
          <mxGeometry width="120" height="40" as="geometry" />
        </mxCell>
        <mxCell id="BOGz9dv89ooAanh70R54-111" value="" style="endArrow=none;html=1;rounded=0;fontSize=12;startSize=8;endSize=8;curved=1;" parent="BOGz9dv89ooAanh70R54-109" edge="1">
          <mxGeometry width="50" height="50" relative="1" as="geometry">
            <mxPoint x="20" y="30" as="sourcePoint" />
            <mxPoint x="100" y="30" as="targetPoint" />
          </mxGeometry>
        </mxCell>
        <mxCell id="BOGz9dv89ooAanh70R54-112" value="" style="group" parent="1" vertex="1" connectable="0">
          <mxGeometry x="1640" y="2252" width="120" height="40" as="geometry" />
        </mxCell>
        <mxCell id="BOGz9dv89ooAanh70R54-113" value="LaunchV_ID" style="rounded=0;whiteSpace=wrap;html=1;fontSize=16;" parent="BOGz9dv89ooAanh70R54-112" vertex="1">
          <mxGeometry width="120" height="40" as="geometry" />
        </mxCell>
        <mxCell id="BOGz9dv89ooAanh70R54-114" value="" style="endArrow=none;html=1;rounded=0;fontSize=12;startSize=8;endSize=8;curved=1;" parent="BOGz9dv89ooAanh70R54-112" edge="1">
          <mxGeometry width="50" height="50" relative="1" as="geometry">
            <mxPoint x="20" y="30" as="sourcePoint" />
            <mxPoint x="100" y="30" as="targetPoint" />
          </mxGeometry>
        </mxCell>
        <mxCell id="BOGz9dv89ooAanh70R54-115" value="" style="group" parent="1" vertex="1" connectable="0">
          <mxGeometry x="1640" y="2102" width="120" height="40" as="geometry" />
        </mxCell>
        <mxCell id="BOGz9dv89ooAanh70R54-116" value="LaunchS_ID" style="rounded=0;whiteSpace=wrap;html=1;fontSize=16;" parent="BOGz9dv89ooAanh70R54-115" vertex="1">
          <mxGeometry width="120" height="40" as="geometry" />
        </mxCell>
        <mxCell id="BOGz9dv89ooAanh70R54-117" value="" style="endArrow=none;html=1;rounded=0;fontSize=12;startSize=8;endSize=8;curved=1;" parent="BOGz9dv89ooAanh70R54-115" edge="1">
          <mxGeometry width="50" height="50" relative="1" as="geometry">
            <mxPoint x="20" y="30" as="sourcePoint" />
            <mxPoint x="100" y="30" as="targetPoint" />
          </mxGeometry>
        </mxCell>
        <mxCell id="BOGz9dv89ooAanh70R54-118" value="" style="group" parent="1" vertex="1" connectable="0">
          <mxGeometry x="1640" y="1962" width="120" height="40" as="geometry" />
        </mxCell>
        <mxCell id="BOGz9dv89ooAanh70R54-119" value="Launch_ID" style="rounded=0;whiteSpace=wrap;html=1;fontSize=16;" parent="BOGz9dv89ooAanh70R54-118" vertex="1">
          <mxGeometry width="120" height="40" as="geometry" />
        </mxCell>
        <mxCell id="BOGz9dv89ooAanh70R54-120" value="" style="endArrow=none;html=1;rounded=0;fontSize=12;startSize=8;endSize=8;curved=1;" parent="BOGz9dv89ooAanh70R54-118" edge="1">
          <mxGeometry width="50" height="50" relative="1" as="geometry">
            <mxPoint x="20" y="30" as="sourcePoint" />
            <mxPoint x="100" y="30" as="targetPoint" />
          </mxGeometry>
        </mxCell>
        <mxCell id="BOGz9dv89ooAanh70R54-121" value="" style="group" parent="BOGz9dv89ooAanh70R54-118" vertex="1" connectable="0">
          <mxGeometry width="120" height="40" as="geometry" />
        </mxCell>
        <mxCell id="BOGz9dv89ooAanh70R54-122" value="Mission_ID" style="rounded=0;whiteSpace=wrap;html=1;fontSize=16;" parent="BOGz9dv89ooAanh70R54-121" vertex="1">
          <mxGeometry width="120" height="40" as="geometry" />
        </mxCell>
        <mxCell id="BOGz9dv89ooAanh70R54-123" value="" style="endArrow=none;html=1;rounded=0;fontSize=12;startSize=8;endSize=8;curved=1;" parent="BOGz9dv89ooAanh70R54-121" edge="1">
          <mxGeometry width="50" height="50" relative="1" as="geometry">
            <mxPoint x="20" y="30" as="sourcePoint" />
            <mxPoint x="100" y="30" as="targetPoint" />
          </mxGeometry>
        </mxCell>
        <mxCell id="BOGz9dv89ooAanh70R54-124" value="Load" style="rounded=0;whiteSpace=wrap;html=1;fontSize=16;" parent="1" vertex="1">
          <mxGeometry x="2480" y="2252" width="120" height="40" as="geometry" />
        </mxCell>
        <mxCell id="BOGz9dv89ooAanh70R54-125" value="" style="group" parent="1" vertex="1" connectable="0">
          <mxGeometry x="1640" y="1822" width="120" height="40" as="geometry" />
        </mxCell>
        <mxCell id="BOGz9dv89ooAanh70R54-126" value="Event_ID" style="rounded=0;whiteSpace=wrap;html=1;fontSize=16;" parent="BOGz9dv89ooAanh70R54-125" vertex="1">
          <mxGeometry width="120" height="40" as="geometry" />
        </mxCell>
        <mxCell id="BOGz9dv89ooAanh70R54-127" value="" style="endArrow=none;html=1;rounded=0;fontSize=12;startSize=8;endSize=8;curved=1;" parent="BOGz9dv89ooAanh70R54-125" edge="1">
          <mxGeometry width="50" height="50" relative="1" as="geometry">
            <mxPoint x="20" y="30" as="sourcePoint" />
            <mxPoint x="100" y="30" as="targetPoint" />
          </mxGeometry>
        </mxCell>
        <mxCell id="BOGz9dv89ooAanh70R54-128" value="" style="group" parent="1" vertex="1" connectable="0">
          <mxGeometry x="1640" y="1682" width="120" height="40" as="geometry" />
        </mxCell>
        <mxCell id="BOGz9dv89ooAanh70R54-129" value="Mission_ID" style="rounded=0;whiteSpace=wrap;html=1;fontSize=16;" parent="BOGz9dv89ooAanh70R54-128" vertex="1">
          <mxGeometry width="120" height="40" as="geometry" />
        </mxCell>
        <mxCell id="BOGz9dv89ooAanh70R54-130" value="" style="endArrow=none;html=1;rounded=0;fontSize=12;startSize=8;endSize=8;curved=1;" parent="BOGz9dv89ooAanh70R54-128" edge="1">
          <mxGeometry width="50" height="50" relative="1" as="geometry">
            <mxPoint x="20" y="30" as="sourcePoint" />
            <mxPoint x="100" y="30" as="targetPoint" />
          </mxGeometry>
        </mxCell>
        <mxCell id="BOGz9dv89ooAanh70R54-131" value="" style="group" parent="1" vertex="1" connectable="0">
          <mxGeometry x="1640" y="1552" width="120" height="40" as="geometry" />
        </mxCell>
        <mxCell id="BOGz9dv89ooAanh70R54-132" value="Prog_ID" style="rounded=0;whiteSpace=wrap;html=1;fontSize=16;" parent="BOGz9dv89ooAanh70R54-131" vertex="1">
          <mxGeometry width="120" height="40" as="geometry" />
        </mxCell>
        <mxCell id="BOGz9dv89ooAanh70R54-133" value="" style="endArrow=none;html=1;rounded=0;fontSize=12;startSize=8;endSize=8;curved=1;" parent="BOGz9dv89ooAanh70R54-131" edge="1">
          <mxGeometry width="50" height="50" relative="1" as="geometry">
            <mxPoint x="20" y="30" as="sourcePoint" />
            <mxPoint x="100" y="30" as="targetPoint" />
          </mxGeometry>
        </mxCell>
        <mxCell id="BOGz9dv89ooAanh70R54-134" value="" style="group" parent="1" vertex="1" connectable="0">
          <mxGeometry x="1759" y="1422" width="120" height="40" as="geometry" />
        </mxCell>
        <mxCell id="BOGz9dv89ooAanh70R54-135" value="Comp_ID" style="rounded=0;whiteSpace=wrap;html=1;fontSize=16;" parent="BOGz9dv89ooAanh70R54-134" vertex="1">
          <mxGeometry width="120" height="40" as="geometry" />
        </mxCell>
        <mxCell id="BOGz9dv89ooAanh70R54-136" value="" style="endArrow=none;html=1;rounded=0;fontSize=12;startSize=8;endSize=8;curved=1;" parent="BOGz9dv89ooAanh70R54-134" edge="1">
          <mxGeometry width="50" height="50" relative="1" as="geometry">
            <mxPoint x="20" y="30" as="sourcePoint" />
            <mxPoint x="100" y="30" as="targetPoint" />
          </mxGeometry>
        </mxCell>
        <mxCell id="BOGz9dv89ooAanh70R54-137" value="" style="group" parent="1" vertex="1" connectable="0">
          <mxGeometry x="1760" y="1302" width="120" height="40" as="geometry" />
        </mxCell>
        <mxCell id="BOGz9dv89ooAanh70R54-138" value="Comp_ID" style="rounded=0;whiteSpace=wrap;html=1;fontSize=16;" parent="BOGz9dv89ooAanh70R54-137" vertex="1">
          <mxGeometry width="120" height="40" as="geometry" />
        </mxCell>
        <mxCell id="BOGz9dv89ooAanh70R54-139" value="" style="endArrow=none;html=1;rounded=0;fontSize=12;startSize=8;endSize=8;curved=1;" parent="BOGz9dv89ooAanh70R54-137" edge="1">
          <mxGeometry width="50" height="50" relative="1" as="geometry">
            <mxPoint x="20" y="30" as="sourcePoint" />
            <mxPoint x="100" y="30" as="targetPoint" />
          </mxGeometry>
        </mxCell>
        <mxCell id="BOGz9dv89ooAanh70R54-140" value="" style="group" parent="1" vertex="1" connectable="0">
          <mxGeometry x="1640" y="1160" width="120" height="40" as="geometry" />
        </mxCell>
        <mxCell id="BOGz9dv89ooAanh70R54-141" value="Comp_ID" style="rounded=0;whiteSpace=wrap;html=1;fontSize=16;" parent="BOGz9dv89ooAanh70R54-140" vertex="1">
          <mxGeometry width="120" height="40" as="geometry" />
        </mxCell>
        <mxCell id="BOGz9dv89ooAanh70R54-142" value="" style="endArrow=none;html=1;rounded=0;fontSize=12;startSize=8;endSize=8;curved=1;" parent="BOGz9dv89ooAanh70R54-140" edge="1">
          <mxGeometry width="50" height="50" relative="1" as="geometry">
            <mxPoint x="20" y="30" as="sourcePoint" />
            <mxPoint x="100" y="30" as="targetPoint" />
          </mxGeometry>
        </mxCell>
        <mxCell id="BOGz9dv89ooAanh70R54-143" value="" style="endArrow=none;html=1;rounded=0;exitX=0.5;exitY=1;exitDx=0;exitDy=0;" parent="1" source="BOGz9dv89ooAanh70R54-138" edge="1">
          <mxGeometry relative="1" as="geometry">
            <mxPoint x="2041" y="1472" as="sourcePoint" />
            <mxPoint x="1700" y="1242" as="targetPoint" />
            <Array as="points">
              <mxPoint x="1820" y="1382" />
              <mxPoint x="1930" y="1382" />
              <mxPoint x="1930" y="1242" />
            </Array>
          </mxGeometry>
        </mxCell>
        <mxCell id="BOGz9dv89ooAanh70R54-144" value="" style="edgeStyle=segmentEdgeStyle;endArrow=classic;html=1;curved=0;rounded=0;endSize=8;startSize=8;fontSize=12;" parent="1" edge="1">
          <mxGeometry width="50" height="50" relative="1" as="geometry">
            <mxPoint x="1699" y="1242" as="sourcePoint" />
            <mxPoint x="1699.09" y="1200" as="targetPoint" />
          </mxGeometry>
        </mxCell>
        <mxCell id="BOGz9dv89ooAanh70R54-145" value="" style="endArrow=none;html=1;rounded=0;" parent="1" edge="1">
          <mxGeometry relative="1" as="geometry">
            <mxPoint x="1700" y="1242" as="sourcePoint" />
            <mxPoint x="1950" y="2452" as="targetPoint" />
            <Array as="points">
              <mxPoint x="1470" y="1242" />
              <mxPoint x="1470" y="2502" />
              <mxPoint x="1950" y="2502" />
            </Array>
          </mxGeometry>
        </mxCell>
        <mxCell id="BOGz9dv89ooAanh70R54-146" value="" style="endArrow=none;html=1;rounded=0;" parent="1" edge="1">
          <mxGeometry relative="1" as="geometry">
            <mxPoint x="1930" y="1382" as="sourcePoint" />
            <mxPoint x="1820" y="1462" as="targetPoint" />
            <Array as="points">
              <mxPoint x="1930" y="1512" />
              <mxPoint x="1820" y="1512" />
            </Array>
          </mxGeometry>
        </mxCell>
        <mxCell id="BOGz9dv89ooAanh70R54-147" value="" style="endArrow=none;html=1;rounded=0;" parent="1" edge="1">
          <mxGeometry relative="1" as="geometry">
            <mxPoint x="1930" y="1511" as="sourcePoint" />
            <mxPoint x="1820" y="1591" as="targetPoint" />
            <Array as="points">
              <mxPoint x="2140" y="1511" />
              <mxPoint x="2140" y="1641" />
              <mxPoint x="1820" y="1641" />
            </Array>
          </mxGeometry>
        </mxCell>
        <mxCell id="BOGz9dv89ooAanh70R54-148" value="" style="edgeStyle=segmentEdgeStyle;endArrow=classic;html=1;curved=0;rounded=0;endSize=8;startSize=8;fontSize=12;" parent="1" edge="1">
          <mxGeometry width="50" height="50" relative="1" as="geometry">
            <mxPoint x="1697.33" y="3952" as="sourcePoint" />
            <mxPoint x="1697.33" y="3952" as="targetPoint" />
            <Array as="points">
              <mxPoint x="1697.33" y="3992" />
              <mxPoint x="1697.33" y="3992" />
            </Array>
          </mxGeometry>
        </mxCell>
        <mxCell id="BOGz9dv89ooAanh70R54-149" value="" style="edgeStyle=segmentEdgeStyle;endArrow=classic;html=1;curved=0;rounded=0;endSize=8;startSize=8;fontSize=12;" parent="1" edge="1">
          <mxGeometry width="50" height="50" relative="1" as="geometry">
            <mxPoint x="1710" y="2772" as="sourcePoint" />
            <mxPoint x="1710" y="2722" as="targetPoint" />
            <Array as="points">
              <mxPoint x="1710" y="2772" />
            </Array>
          </mxGeometry>
        </mxCell>
        <mxCell id="BOGz9dv89ooAanh70R54-150" value="" style="edgeStyle=segmentEdgeStyle;endArrow=classic;html=1;curved=0;rounded=0;endSize=8;startSize=8;fontSize=12;" parent="1" edge="1">
          <mxGeometry width="50" height="50" relative="1" as="geometry">
            <mxPoint x="1698.75" y="2292" as="sourcePoint" />
            <mxPoint x="1698.75" y="2292" as="targetPoint" />
            <Array as="points">
              <mxPoint x="1698.75" y="2332" />
              <mxPoint x="1698.75" y="2332" />
            </Array>
          </mxGeometry>
        </mxCell>
        <mxCell id="BOGz9dv89ooAanh70R54-151" value="" style="edgeStyle=segmentEdgeStyle;endArrow=classic;html=1;curved=0;rounded=0;endSize=8;startSize=8;fontSize=12;" parent="1" edge="1">
          <mxGeometry width="50" height="50" relative="1" as="geometry">
            <mxPoint x="1690" y="2142" as="sourcePoint" />
            <mxPoint x="1690" y="2142" as="targetPoint" />
            <Array as="points">
              <mxPoint x="1690" y="2182" />
              <mxPoint x="1690" y="2182" />
            </Array>
          </mxGeometry>
        </mxCell>
        <mxCell id="BOGz9dv89ooAanh70R54-152" value="" style="endArrow=none;html=1;rounded=0;entryX=0.5;entryY=1;entryDx=0;entryDy=0;" parent="1" target="BOGz9dv89ooAanh70R54-23" edge="1">
          <mxGeometry relative="1" as="geometry">
            <mxPoint x="1690" y="2182" as="sourcePoint" />
            <mxPoint x="1440" y="2027" as="targetPoint" />
            <Array as="points">
              <mxPoint x="2140" y="2182" />
              <mxPoint x="2140" y="2042" />
              <mxPoint x="1820" y="2042" />
            </Array>
          </mxGeometry>
        </mxCell>
        <mxCell id="BOGz9dv89ooAanh70R54-153" value="" style="endArrow=none;html=1;rounded=0;exitX=0.5;exitY=1;exitDx=0;exitDy=0;" parent="1" source="BOGz9dv89ooAanh70R54-22" edge="1">
          <mxGeometry relative="1" as="geometry">
            <mxPoint x="1818" y="2430" as="sourcePoint" />
            <mxPoint x="1698" y="2330" as="targetPoint" />
            <Array as="points">
              <mxPoint x="1940" y="2022" />
              <mxPoint x="1570" y="2022" />
              <mxPoint x="1570" y="2330" />
            </Array>
          </mxGeometry>
        </mxCell>
        <mxCell id="BOGz9dv89ooAanh70R54-154" value="" style="endArrow=none;html=1;rounded=0;exitX=0.582;exitY=0.981;exitDx=0;exitDy=0;exitPerimeter=0;" parent="1" source="BOGz9dv89ooAanh70R54-30" edge="1">
          <mxGeometry relative="1" as="geometry">
            <mxPoint x="2070" y="2332" as="sourcePoint" />
            <mxPoint x="1699" y="2452" as="targetPoint" />
            <Array as="points">
              <mxPoint x="2070" y="2342" />
              <mxPoint x="1550" y="2342" />
              <mxPoint x="1550" y="2472" />
              <mxPoint x="1699" y="2472" />
            </Array>
          </mxGeometry>
        </mxCell>
        <mxCell id="BOGz9dv89ooAanh70R54-155" value="" style="edgeStyle=segmentEdgeStyle;endArrow=classic;html=1;curved=0;rounded=0;endSize=8;startSize=8;fontSize=12;" parent="1" edge="1">
          <mxGeometry width="50" height="50" relative="1" as="geometry">
            <mxPoint x="1699.41" y="2412" as="sourcePoint" />
            <mxPoint x="1699" y="2452" as="targetPoint" />
            <Array as="points">
              <mxPoint x="1699.41" y="2472" />
              <mxPoint x="1699.41" y="2472" />
            </Array>
          </mxGeometry>
        </mxCell>
        <mxCell id="BOGz9dv89ooAanh70R54-156" value="" style="endArrow=none;html=1;rounded=0;exitX=0.5;exitY=1;exitDx=0;exitDy=0;" parent="1" source="BOGz9dv89ooAanh70R54-96" edge="1">
          <mxGeometry relative="1" as="geometry">
            <mxPoint x="1589.75" y="3491" as="sourcePoint" />
            <mxPoint x="1690" y="3202" as="targetPoint" />
            <Array as="points">
              <mxPoint x="1700" y="3522" />
              <mxPoint x="1630" y="3522" />
              <mxPoint x="1590" y="3522" />
              <mxPoint x="1590" y="3202" />
            </Array>
          </mxGeometry>
        </mxCell>
        <mxCell id="BOGz9dv89ooAanh70R54-157" value="" style="edgeStyle=segmentEdgeStyle;endArrow=classic;html=1;curved=0;rounded=0;endSize=8;startSize=8;fontSize=12;" parent="1" edge="1">
          <mxGeometry width="50" height="50" relative="1" as="geometry">
            <mxPoint x="1709.17" y="2592" as="sourcePoint" />
            <mxPoint x="1709.17" y="2592" as="targetPoint" />
            <Array as="points">
              <mxPoint x="1709.17" y="2632" />
              <mxPoint x="1709.17" y="2632" />
            </Array>
          </mxGeometry>
        </mxCell>
        <mxCell id="BOGz9dv89ooAanh70R54-158" value="" style="endArrow=none;html=1;rounded=0;" parent="1" edge="1">
          <mxGeometry relative="1" as="geometry">
            <mxPoint x="1710" y="2772" as="sourcePoint" />
            <mxPoint x="1709" y="2632" as="targetPoint" />
            <Array as="points">
              <mxPoint x="1590" y="2772" />
              <mxPoint x="1590" y="2632" />
            </Array>
          </mxGeometry>
        </mxCell>
        <mxCell id="BOGz9dv89ooAanh70R54-159" value="" style="edgeStyle=segmentEdgeStyle;endArrow=classic;html=1;curved=0;rounded=0;endSize=8;startSize=8;fontSize=12;" parent="1" edge="1">
          <mxGeometry width="50" height="50" relative="1" as="geometry">
            <mxPoint x="2020" y="3162" as="sourcePoint" />
            <mxPoint x="2020" y="3162" as="targetPoint" />
            <Array as="points">
              <mxPoint x="2020" y="3202" />
              <mxPoint x="2020" y="3202" />
            </Array>
          </mxGeometry>
        </mxCell>
        <mxCell id="BOGz9dv89ooAanh70R54-160" value="" style="endArrow=none;html=1;rounded=0;exitX=0.5;exitY=1;exitDx=0;exitDy=0;" parent="1" edge="1">
          <mxGeometry relative="1" as="geometry">
            <mxPoint x="1700.25" y="3653" as="sourcePoint" />
            <mxPoint x="1590" y="3512" as="targetPoint" />
            <Array as="points">
              <mxPoint x="1700.25" y="3683" />
              <mxPoint x="1630.25" y="3683" />
              <mxPoint x="1590.25" y="3683" />
            </Array>
          </mxGeometry>
        </mxCell>
        <mxCell id="BOGz9dv89ooAanh70R54-161" value="" style="endArrow=none;html=1;rounded=0;exitX=0.5;exitY=1;exitDx=0;exitDy=0;" parent="1" edge="1">
          <mxGeometry relative="1" as="geometry">
            <mxPoint x="1700.25" y="3803" as="sourcePoint" />
            <mxPoint x="1590" y="3662" as="targetPoint" />
            <Array as="points">
              <mxPoint x="1700.25" y="3833" />
              <mxPoint x="1630.25" y="3833" />
              <mxPoint x="1590.25" y="3833" />
            </Array>
          </mxGeometry>
        </mxCell>
        <mxCell id="BOGz9dv89ooAanh70R54-162" value="" style="endArrow=none;html=1;rounded=0;" parent="1" edge="1">
          <mxGeometry relative="1" as="geometry">
            <mxPoint x="1680" y="3952" as="sourcePoint" />
            <mxPoint x="1590" y="3812" as="targetPoint" />
            <Array as="points">
              <mxPoint x="1680" y="3983" />
              <mxPoint x="1630.25" y="3983" />
              <mxPoint x="1590.25" y="3983" />
            </Array>
          </mxGeometry>
        </mxCell>
        <mxCell id="BOGz9dv89ooAanh70R54-163" value="" style="endArrow=none;html=1;rounded=0;" parent="1" edge="1">
          <mxGeometry relative="1" as="geometry">
            <mxPoint x="1700" y="3992" as="sourcePoint" />
            <mxPoint x="1700.17" y="4241" as="targetPoint" />
            <Array as="points">
              <mxPoint x="2270" y="3992" />
              <mxPoint x="2270" y="4292" />
              <mxPoint x="1700" y="4292" />
            </Array>
          </mxGeometry>
        </mxCell>
        <mxCell id="BOGz9dv89ooAanh70R54-164" value="" style="edgeStyle=segmentEdgeStyle;endArrow=classic;html=1;curved=0;rounded=0;endSize=8;startSize=8;fontSize=12;" parent="1" edge="1">
          <mxGeometry width="50" height="50" relative="1" as="geometry">
            <mxPoint x="1695" y="4086" as="sourcePoint" />
            <mxPoint x="1695" y="4086" as="targetPoint" />
            <Array as="points">
              <mxPoint x="1695" y="4126" />
              <mxPoint x="1695" y="4126" />
            </Array>
          </mxGeometry>
        </mxCell>
        <mxCell id="BOGz9dv89ooAanh70R54-165" value="" style="endArrow=none;html=1;rounded=0;exitX=0.5;exitY=1;exitDx=0;exitDy=0;" parent="1" source="BOGz9dv89ooAanh70R54-83" edge="1">
          <mxGeometry relative="1" as="geometry">
            <mxPoint x="1920" y="4282" as="sourcePoint" />
            <mxPoint x="1695" y="4126" as="targetPoint" />
            <Array as="points">
              <mxPoint x="1820" y="4272" />
              <mxPoint x="2040" y="4272" />
              <mxPoint x="2040" y="4126" />
            </Array>
          </mxGeometry>
        </mxCell>
        <mxCell id="BOGz9dv89ooAanh70R54-166" value="Person&lt;br&gt;has&lt;br&gt;Speciality" style="text;html=1;strokeColor=none;fillColor=none;align=center;verticalAlign=middle;whiteSpace=wrap;rounded=0;fontSize=16;" parent="1" vertex="1">
          <mxGeometry x="2459" y="2552" width="166" height="30" as="geometry" />
        </mxCell>
        <mxCell id="BOGz9dv89ooAanh70R54-167" value="" style="group" parent="1" vertex="1" connectable="0">
          <mxGeometry x="2482" y="2602" width="120" height="40" as="geometry" />
        </mxCell>
        <mxCell id="BOGz9dv89ooAanh70R54-168" value="Per_ID" style="rounded=0;whiteSpace=wrap;html=1;fontSize=16;" parent="BOGz9dv89ooAanh70R54-167" vertex="1">
          <mxGeometry width="120" height="40" as="geometry" />
        </mxCell>
        <mxCell id="BOGz9dv89ooAanh70R54-169" value="" style="endArrow=none;html=1;rounded=0;fontSize=12;startSize=8;endSize=8;curved=1;" parent="BOGz9dv89ooAanh70R54-167" edge="1">
          <mxGeometry width="50" height="50" relative="1" as="geometry">
            <mxPoint x="20" y="30" as="sourcePoint" />
            <mxPoint x="100" y="30" as="targetPoint" />
          </mxGeometry>
        </mxCell>
        <mxCell id="BOGz9dv89ooAanh70R54-170" value="" style="group" parent="1" vertex="1" connectable="0">
          <mxGeometry x="2597" y="2602" width="120" height="40" as="geometry" />
        </mxCell>
        <mxCell id="BOGz9dv89ooAanh70R54-171" value="Speciality" style="rounded=0;whiteSpace=wrap;html=1;fontSize=16;" parent="BOGz9dv89ooAanh70R54-170" vertex="1">
          <mxGeometry width="120" height="40" as="geometry" />
        </mxCell>
        <mxCell id="BOGz9dv89ooAanh70R54-172" value="" style="endArrow=none;html=1;rounded=0;fontSize=12;startSize=8;endSize=8;curved=1;" parent="BOGz9dv89ooAanh70R54-170" edge="1">
          <mxGeometry width="50" height="50" relative="1" as="geometry">
            <mxPoint x="20" y="30" as="sourcePoint" />
            <mxPoint x="100" y="30" as="targetPoint" />
          </mxGeometry>
        </mxCell>
        <mxCell id="BOGz9dv89ooAanh70R54-173" value="" style="endArrow=none;html=1;rounded=0;entryX=0.5;entryY=1;entryDx=0;entryDy=0;" parent="1" target="BOGz9dv89ooAanh70R54-168" edge="1">
          <mxGeometry relative="1" as="geometry">
            <mxPoint x="1710" y="2632" as="sourcePoint" />
            <mxPoint x="2491" y="2640" as="targetPoint" />
            <Array as="points">
              <mxPoint x="1710" y="2662" />
              <mxPoint x="2542" y="2662" />
            </Array>
          </mxGeometry>
        </mxCell>
        <mxCell id="BOGz9dv89ooAanh70R54-174" value="" style="endArrow=none;html=1;rounded=0;entryX=0.615;entryY=1.005;entryDx=0;entryDy=0;entryPerimeter=0;" parent="1" target="BOGz9dv89ooAanh70R54-171" edge="1">
          <mxGeometry relative="1" as="geometry">
            <mxPoint x="1709" y="2907" as="sourcePoint" />
            <mxPoint x="2490" y="2915" as="targetPoint" />
            <Array as="points">
              <mxPoint x="1709" y="2937" />
              <mxPoint x="2670" y="2942" />
              <mxPoint x="2670" y="2822" />
            </Array>
          </mxGeometry>
        </mxCell>
        <mxCell id="BOGz9dv89ooAanh70R54-175" value="" style="edgeStyle=segmentEdgeStyle;endArrow=classic;html=1;curved=0;rounded=0;endSize=8;startSize=8;fontSize=12;" parent="1" edge="1">
          <mxGeometry width="50" height="50" relative="1" as="geometry">
            <mxPoint x="1709" y="2872" as="sourcePoint" />
            <mxPoint x="1709" y="2872" as="targetPoint" />
            <Array as="points">
              <mxPoint x="1709" y="2912" />
              <mxPoint x="1709" y="2912" />
            </Array>
          </mxGeometry>
        </mxCell>
        <mxCell id="BOGz9dv89ooAanh70R54-176" value="" style="group" parent="1" vertex="1" connectable="0">
          <mxGeometry x="2270" y="2852" width="120" height="40" as="geometry" />
        </mxCell>
        <mxCell id="BOGz9dv89ooAanh70R54-177" value="Crew_ID" style="rounded=0;whiteSpace=wrap;html=1;fontSize=16;" parent="BOGz9dv89ooAanh70R54-176" vertex="1">
          <mxGeometry width="120" height="40" as="geometry" />
        </mxCell>
        <mxCell id="BOGz9dv89ooAanh70R54-178" value="" style="endArrow=none;html=1;rounded=0;fontSize=12;startSize=8;endSize=8;curved=1;" parent="BOGz9dv89ooAanh70R54-176" edge="1">
          <mxGeometry width="50" height="50" relative="1" as="geometry">
            <mxPoint x="20" y="30" as="sourcePoint" />
            <mxPoint x="100" y="30" as="targetPoint" />
          </mxGeometry>
        </mxCell>
        <mxCell id="BOGz9dv89ooAanh70R54-179" value="" style="group" parent="1" vertex="1" connectable="0">
          <mxGeometry x="2385" y="2852" width="120" height="40" as="geometry" />
        </mxCell>
        <mxCell id="BOGz9dv89ooAanh70R54-180" value="Ast_ID" style="rounded=0;whiteSpace=wrap;html=1;fontSize=16;" parent="BOGz9dv89ooAanh70R54-179" vertex="1">
          <mxGeometry width="120" height="40" as="geometry" />
        </mxCell>
        <mxCell id="BOGz9dv89ooAanh70R54-181" value="" style="endArrow=none;html=1;rounded=0;fontSize=12;startSize=8;endSize=8;curved=1;" parent="BOGz9dv89ooAanh70R54-179" edge="1">
          <mxGeometry width="50" height="50" relative="1" as="geometry">
            <mxPoint x="20" y="30" as="sourcePoint" />
            <mxPoint x="100" y="30" as="targetPoint" />
          </mxGeometry>
        </mxCell>
        <mxCell id="BOGz9dv89ooAanh70R54-182" value="Crew&amp;nbsp;&lt;br&gt;has&lt;br&gt;Astronaut" style="text;html=1;strokeColor=none;fillColor=none;align=center;verticalAlign=middle;whiteSpace=wrap;rounded=0;fontSize=16;" parent="1" vertex="1">
          <mxGeometry x="2240" y="2802" width="166" height="30" as="geometry" />
        </mxCell>
        <mxCell id="BOGz9dv89ooAanh70R54-183" value="Crew" style="text;html=1;strokeColor=none;fillColor=none;align=center;verticalAlign=middle;whiteSpace=wrap;rounded=0;fontSize=16;" parent="1" vertex="1">
          <mxGeometry x="2005" y="2947" width="60" height="30" as="geometry" />
        </mxCell>
        <mxCell id="BOGz9dv89ooAanh70R54-184" value="Supervisor" style="rounded=0;whiteSpace=wrap;html=1;fontSize=16;" parent="1" vertex="1">
          <mxGeometry x="2135" y="2997" width="120" height="40" as="geometry" />
        </mxCell>
        <mxCell id="BOGz9dv89ooAanh70R54-185" value="" style="group" parent="1" vertex="1" connectable="0">
          <mxGeometry x="2015" y="2997" width="120" height="40" as="geometry" />
        </mxCell>
        <mxCell id="BOGz9dv89ooAanh70R54-186" value="Crew_ID" style="rounded=0;whiteSpace=wrap;html=1;fontSize=16;" parent="BOGz9dv89ooAanh70R54-185" vertex="1">
          <mxGeometry width="120" height="40" as="geometry" />
        </mxCell>
        <mxCell id="BOGz9dv89ooAanh70R54-187" value="" style="endArrow=none;html=1;rounded=0;fontSize=12;startSize=8;endSize=8;curved=1;" parent="BOGz9dv89ooAanh70R54-185" edge="1">
          <mxGeometry width="50" height="50" relative="1" as="geometry">
            <mxPoint x="20" y="30" as="sourcePoint" />
            <mxPoint x="100" y="30" as="targetPoint" />
          </mxGeometry>
        </mxCell>
        <mxCell id="BOGz9dv89ooAanh70R54-188" value="" style="edgeStyle=segmentEdgeStyle;endArrow=classic;html=1;curved=0;rounded=0;endSize=8;startSize=8;fontSize=12;fontStyle=1" parent="1" edge="1">
          <mxGeometry width="50" height="50" relative="1" as="geometry">
            <mxPoint x="1720" y="3322" as="sourcePoint" />
            <mxPoint x="1720" y="3322" as="targetPoint" />
            <Array as="points">
              <mxPoint x="1720" y="3362" />
              <mxPoint x="1720" y="3362" />
            </Array>
          </mxGeometry>
        </mxCell>
        <mxCell id="BOGz9dv89ooAanh70R54-189" value="" style="endArrow=none;html=1;rounded=0;fontStyle=1;entryX=0.5;entryY=1;entryDx=0;entryDy=0;" parent="1" target="BOGz9dv89ooAanh70R54-184" edge="1">
          <mxGeometry relative="1" as="geometry">
            <mxPoint x="2440" y="2922" as="sourcePoint" />
            <mxPoint x="1290" y="3072" as="targetPoint" />
            <Array as="points">
              <mxPoint x="2440" y="3062" />
              <mxPoint x="2195" y="3062" />
            </Array>
          </mxGeometry>
        </mxCell>
        <mxCell id="BOGz9dv89ooAanh70R54-190" value="" style="endArrow=none;html=1;rounded=0;fontStyle=1;exitX=0.5;exitY=1;exitDx=0;exitDy=0;" parent="1" source="BOGz9dv89ooAanh70R54-273" edge="1">
          <mxGeometry relative="1" as="geometry">
            <mxPoint x="1910" y="3492" as="sourcePoint" />
            <mxPoint x="1720" y="3362" as="targetPoint" />
            <Array as="points">
              <mxPoint x="3248" y="2302" />
              <mxPoint x="3250" y="3362" />
            </Array>
          </mxGeometry>
        </mxCell>
        <mxCell id="BOGz9dv89ooAanh70R54-191" value="" style="endArrow=none;html=1;rounded=0;fontStyle=1;exitX=0.5;exitY=1;exitDx=0;exitDy=0;" parent="1" source="BOGz9dv89ooAanh70R54-180" edge="1">
          <mxGeometry relative="1" as="geometry">
            <mxPoint x="1710" y="2922" as="sourcePoint" />
            <mxPoint x="1710" y="2762" as="targetPoint" />
            <Array as="points">
              <mxPoint x="2445" y="2922" />
              <mxPoint x="2070" y="2922" />
              <mxPoint x="2070" y="2802" />
              <mxPoint x="1710" y="2802" />
            </Array>
          </mxGeometry>
        </mxCell>
        <mxCell id="BOGz9dv89ooAanh70R54-192" value="" style="endArrow=none;html=1;rounded=0;fontStyle=1" parent="1" edge="1">
          <mxGeometry relative="1" as="geometry">
            <mxPoint x="2070" y="3082" as="sourcePoint" />
            <mxPoint x="2329.41" y="2892" as="targetPoint" />
            <Array as="points">
              <mxPoint x="2330" y="3082" />
            </Array>
          </mxGeometry>
        </mxCell>
        <mxCell id="BOGz9dv89ooAanh70R54-193" value="" style="group" parent="1" vertex="1" connectable="0">
          <mxGeometry x="3010" y="3122" width="120" height="40" as="geometry" />
        </mxCell>
        <mxCell id="BOGz9dv89ooAanh70R54-194" value="Craft_ID" style="rounded=0;whiteSpace=wrap;html=1;fontSize=16;" parent="BOGz9dv89ooAanh70R54-193" vertex="1">
          <mxGeometry width="120" height="40" as="geometry" />
        </mxCell>
        <mxCell id="BOGz9dv89ooAanh70R54-195" value="" style="endArrow=none;html=1;rounded=0;fontSize=12;startSize=8;endSize=8;curved=1;" parent="BOGz9dv89ooAanh70R54-193" edge="1">
          <mxGeometry width="50" height="50" relative="1" as="geometry">
            <mxPoint x="20" y="30" as="sourcePoint" />
            <mxPoint x="100" y="30" as="targetPoint" />
          </mxGeometry>
        </mxCell>
        <mxCell id="BOGz9dv89ooAanh70R54-196" value="" style="group" parent="1" vertex="1" connectable="0">
          <mxGeometry x="3125" y="3122" width="120" height="40" as="geometry" />
        </mxCell>
        <mxCell id="BOGz9dv89ooAanh70R54-197" value="Launch_ID" style="rounded=0;whiteSpace=wrap;html=1;fontSize=16;" parent="BOGz9dv89ooAanh70R54-196" vertex="1">
          <mxGeometry width="120" height="40" as="geometry" />
        </mxCell>
        <mxCell id="BOGz9dv89ooAanh70R54-198" value="" style="endArrow=none;html=1;rounded=0;fontSize=12;startSize=8;endSize=8;curved=1;" parent="BOGz9dv89ooAanh70R54-196" edge="1">
          <mxGeometry width="50" height="50" relative="1" as="geometry">
            <mxPoint x="20" y="30" as="sourcePoint" />
            <mxPoint x="100" y="30" as="targetPoint" />
          </mxGeometry>
        </mxCell>
        <mxCell id="BOGz9dv89ooAanh70R54-199" value="Launch has Spacecraft" style="text;html=1;strokeColor=none;fillColor=none;align=center;verticalAlign=middle;whiteSpace=wrap;rounded=0;fontSize=16;" parent="1" vertex="1">
          <mxGeometry x="3010" y="3092" width="166" height="30" as="geometry" />
        </mxCell>
        <mxCell id="BOGz9dv89ooAanh70R54-200" value="" style="endArrow=none;html=1;rounded=0;fontStyle=1" parent="1" edge="1">
          <mxGeometry relative="1" as="geometry">
            <mxPoint x="1690" y="3202" as="sourcePoint" />
            <mxPoint x="3069.09" y="3162" as="targetPoint" />
            <Array as="points">
              <mxPoint x="3070" y="3202" />
            </Array>
          </mxGeometry>
        </mxCell>
        <mxCell id="BOGz9dv89ooAanh70R54-201" value="" style="endArrow=none;html=1;rounded=0;fontStyle=1;exitX=0.5;exitY=1;exitDx=0;exitDy=0;" parent="1" source="BOGz9dv89ooAanh70R54-197" edge="1">
          <mxGeometry relative="1" as="geometry">
            <mxPoint x="2950" y="2042" as="sourcePoint" />
            <mxPoint x="1698.17" y="2039" as="targetPoint" />
            <Array as="points">
              <mxPoint x="3185" y="3202" />
              <mxPoint x="3510" y="3202" />
              <mxPoint x="3510" y="2072" />
              <mxPoint x="1698" y="2072" />
            </Array>
          </mxGeometry>
        </mxCell>
        <mxCell id="BOGz9dv89ooAanh70R54-202" value="" style="edgeStyle=segmentEdgeStyle;endArrow=classic;html=1;curved=0;rounded=0;endSize=8;startSize=8;fontSize=12;fontStyle=1" parent="1" edge="1">
          <mxGeometry width="50" height="50" relative="1" as="geometry">
            <mxPoint x="1698.17" y="2001" as="sourcePoint" />
            <mxPoint x="1698.17" y="2001" as="targetPoint" />
            <Array as="points">
              <mxPoint x="1698.17" y="2041" />
              <mxPoint x="1698.17" y="2041" />
            </Array>
          </mxGeometry>
        </mxCell>
        <mxCell id="BOGz9dv89ooAanh70R54-203" value="" style="group" parent="1" vertex="1" connectable="0">
          <mxGeometry x="2610" y="1582" width="120" height="40" as="geometry" />
        </mxCell>
        <mxCell id="BOGz9dv89ooAanh70R54-204" value="Prog_ID" style="rounded=0;whiteSpace=wrap;html=1;fontSize=16;" parent="BOGz9dv89ooAanh70R54-203" vertex="1">
          <mxGeometry width="120" height="40" as="geometry" />
        </mxCell>
        <mxCell id="BOGz9dv89ooAanh70R54-205" value="" style="endArrow=none;html=1;rounded=0;fontSize=12;startSize=8;endSize=8;curved=1;" parent="BOGz9dv89ooAanh70R54-203" edge="1">
          <mxGeometry width="50" height="50" relative="1" as="geometry">
            <mxPoint x="20" y="30" as="sourcePoint" />
            <mxPoint x="100" y="30" as="targetPoint" />
          </mxGeometry>
        </mxCell>
        <mxCell id="BOGz9dv89ooAanh70R54-206" value="" style="group" parent="1" vertex="1" connectable="0">
          <mxGeometry x="2725" y="1582" width="120" height="40" as="geometry" />
        </mxCell>
        <mxCell id="BOGz9dv89ooAanh70R54-207" value="Mission_ID" style="rounded=0;whiteSpace=wrap;html=1;fontSize=16;" parent="BOGz9dv89ooAanh70R54-206" vertex="1">
          <mxGeometry width="120" height="40" as="geometry" />
        </mxCell>
        <mxCell id="BOGz9dv89ooAanh70R54-208" value="" style="endArrow=none;html=1;rounded=0;fontSize=12;startSize=8;endSize=8;curved=1;" parent="BOGz9dv89ooAanh70R54-206" edge="1">
          <mxGeometry width="50" height="50" relative="1" as="geometry">
            <mxPoint x="20" y="30" as="sourcePoint" />
            <mxPoint x="100" y="30" as="targetPoint" />
          </mxGeometry>
        </mxCell>
        <mxCell id="BOGz9dv89ooAanh70R54-209" value="Program&lt;br&gt;has&lt;br&gt;Mission" style="text;html=1;strokeColor=none;fillColor=none;align=center;verticalAlign=middle;whiteSpace=wrap;rounded=0;fontSize=16;" parent="1" vertex="1">
          <mxGeometry x="2580" y="1532" width="166" height="30" as="geometry" />
        </mxCell>
        <mxCell id="BOGz9dv89ooAanh70R54-210" value="" style="edgeStyle=segmentEdgeStyle;endArrow=classic;html=1;curved=0;rounded=0;endSize=8;startSize=8;fontSize=12;fontStyle=1" parent="1" edge="1">
          <mxGeometry width="50" height="50" relative="1" as="geometry">
            <mxPoint x="1704.17" y="1592" as="sourcePoint" />
            <mxPoint x="1704.17" y="1592" as="targetPoint" />
            <Array as="points">
              <mxPoint x="1704.17" y="1632" />
              <mxPoint x="1704.17" y="1632" />
            </Array>
          </mxGeometry>
        </mxCell>
        <mxCell id="BOGz9dv89ooAanh70R54-211" value="" style="endArrow=none;html=1;rounded=0;fontStyle=1;exitX=0.5;exitY=1;exitDx=0;exitDy=0;" parent="1" source="BOGz9dv89ooAanh70R54-204" edge="1">
          <mxGeometry relative="1" as="geometry">
            <mxPoint x="1704.17" y="1792" as="sourcePoint" />
            <mxPoint x="1704.17" y="1632" as="targetPoint" />
            <Array as="points">
              <mxPoint x="2670" y="1662" />
              <mxPoint x="1704" y="1662" />
            </Array>
          </mxGeometry>
        </mxCell>
        <mxCell id="BOGz9dv89ooAanh70R54-212" value="" style="endArrow=none;html=1;rounded=0;fontStyle=1;exitX=0.5;exitY=1;exitDx=0;exitDy=0;" parent="1" source="BOGz9dv89ooAanh70R54-207" edge="1">
          <mxGeometry relative="1" as="geometry">
            <mxPoint x="2670" y="1742" as="sourcePoint" />
            <mxPoint x="1700" y="1762" as="targetPoint" />
            <Array as="points">
              <mxPoint x="2785" y="1762" />
            </Array>
          </mxGeometry>
        </mxCell>
        <mxCell id="BOGz9dv89ooAanh70R54-213" value="" style="edgeStyle=segmentEdgeStyle;endArrow=classic;html=1;curved=0;rounded=0;endSize=8;startSize=8;fontSize=12;fontStyle=1" parent="1" edge="1">
          <mxGeometry width="50" height="50" relative="1" as="geometry">
            <mxPoint x="1704.17" y="1722" as="sourcePoint" />
            <mxPoint x="1704.17" y="1722" as="targetPoint" />
            <Array as="points">
              <mxPoint x="1704.17" y="1762" />
              <mxPoint x="1704.17" y="1762" />
            </Array>
          </mxGeometry>
        </mxCell>
        <mxCell id="BOGz9dv89ooAanh70R54-214" value="" style="group" parent="1" vertex="1" connectable="0">
          <mxGeometry x="3160" y="1672" width="120" height="40" as="geometry" />
        </mxCell>
        <mxCell id="BOGz9dv89ooAanh70R54-215" value="Mission_ID" style="rounded=0;whiteSpace=wrap;html=1;fontSize=16;" parent="BOGz9dv89ooAanh70R54-214" vertex="1">
          <mxGeometry width="120" height="40" as="geometry" />
        </mxCell>
        <mxCell id="BOGz9dv89ooAanh70R54-216" value="" style="endArrow=none;html=1;rounded=0;fontSize=12;startSize=8;endSize=8;curved=1;" parent="BOGz9dv89ooAanh70R54-214" edge="1">
          <mxGeometry width="50" height="50" relative="1" as="geometry">
            <mxPoint x="20" y="30" as="sourcePoint" />
            <mxPoint x="100" y="30" as="targetPoint" />
          </mxGeometry>
        </mxCell>
        <mxCell id="BOGz9dv89ooAanh70R54-217" value="" style="group" parent="1" vertex="1" connectable="0">
          <mxGeometry x="3275" y="1672" width="120" height="40" as="geometry" />
        </mxCell>
        <mxCell id="BOGz9dv89ooAanh70R54-218" value="Craft_ID" style="rounded=0;whiteSpace=wrap;html=1;fontSize=16;" parent="BOGz9dv89ooAanh70R54-217" vertex="1">
          <mxGeometry width="120" height="40" as="geometry" />
        </mxCell>
        <mxCell id="BOGz9dv89ooAanh70R54-219" value="" style="endArrow=none;html=1;rounded=0;fontSize=12;startSize=8;endSize=8;curved=1;" parent="BOGz9dv89ooAanh70R54-217" edge="1">
          <mxGeometry width="50" height="50" relative="1" as="geometry">
            <mxPoint x="20" y="30" as="sourcePoint" />
            <mxPoint x="100" y="30" as="targetPoint" />
          </mxGeometry>
        </mxCell>
        <mxCell id="BOGz9dv89ooAanh70R54-220" value="Mission&amp;nbsp;&lt;br&gt;has&lt;br&gt;Spacecraft" style="text;html=1;strokeColor=none;fillColor=none;align=center;verticalAlign=middle;whiteSpace=wrap;rounded=0;fontSize=16;" parent="1" vertex="1">
          <mxGeometry x="3130" y="1622" width="166" height="30" as="geometry" />
        </mxCell>
        <mxCell id="BOGz9dv89ooAanh70R54-221" value="" style="endArrow=none;html=1;rounded=0;fontStyle=1" parent="1" edge="1">
          <mxGeometry relative="1" as="geometry">
            <mxPoint x="2780" y="1762" as="sourcePoint" />
            <mxPoint x="3220" y="1712" as="targetPoint" />
            <Array as="points">
              <mxPoint x="3220" y="1762" />
            </Array>
          </mxGeometry>
        </mxCell>
        <mxCell id="BOGz9dv89ooAanh70R54-222" value="" style="endArrow=none;html=1;rounded=0;fontStyle=1" parent="1" edge="1">
          <mxGeometry relative="1" as="geometry">
            <mxPoint x="2830" y="3202" as="sourcePoint" />
            <mxPoint x="3334.29" y="1712" as="targetPoint" />
            <Array as="points">
              <mxPoint x="2830" y="2462" />
              <mxPoint x="3334" y="2462" />
            </Array>
          </mxGeometry>
        </mxCell>
        <mxCell id="BOGz9dv89ooAanh70R54-223" value="" style="edgeStyle=segmentEdgeStyle;endArrow=classic;html=1;curved=0;rounded=0;endSize=8;startSize=8;fontSize=12;fontStyle=1" parent="1" edge="1">
          <mxGeometry width="50" height="50" relative="1" as="geometry">
            <mxPoint x="3245" y="1712" as="sourcePoint" />
            <mxPoint x="3245" y="1712" as="targetPoint" />
            <Array as="points">
              <mxPoint x="3245" y="1752" />
              <mxPoint x="3245" y="1752" />
            </Array>
          </mxGeometry>
        </mxCell>
        <mxCell id="BOGz9dv89ooAanh70R54-224" value="" style="endArrow=none;html=1;rounded=0;fontStyle=1" parent="1" edge="1">
          <mxGeometry relative="1" as="geometry">
            <mxPoint x="3270" y="1752" as="sourcePoint" />
            <mxPoint x="2810" y="2022" as="targetPoint" />
            <Array as="points">
              <mxPoint x="3270" y="2022" />
              <mxPoint x="2800" y="2022" />
            </Array>
          </mxGeometry>
        </mxCell>
        <mxCell id="BOGz9dv89ooAanh70R54-225" value="" style="edgeStyle=segmentEdgeStyle;endArrow=classic;html=1;curved=0;rounded=0;endSize=8;startSize=8;fontSize=12;fontStyle=1" parent="1" edge="1">
          <mxGeometry width="50" height="50" relative="1" as="geometry">
            <mxPoint x="3310" y="1710" as="sourcePoint" />
            <mxPoint x="3310" y="1710" as="targetPoint" />
            <Array as="points">
              <mxPoint x="3310" y="1750" />
              <mxPoint x="3310" y="1750" />
            </Array>
          </mxGeometry>
        </mxCell>
        <mxCell id="BOGz9dv89ooAanh70R54-226" value="" style="endArrow=none;html=1;rounded=0;fontStyle=1" parent="1" edge="1">
          <mxGeometry relative="1" as="geometry">
            <mxPoint x="3310" y="1752" as="sourcePoint" />
            <mxPoint x="3245" y="1752" as="targetPoint" />
          </mxGeometry>
        </mxCell>
        <mxCell id="BOGz9dv89ooAanh70R54-227" value="" style="group" parent="1" vertex="1" connectable="0">
          <mxGeometry x="2958" y="2197" width="120" height="40" as="geometry" />
        </mxCell>
        <mxCell id="BOGz9dv89ooAanh70R54-228" value="Mission/Craft ID" style="rounded=0;whiteSpace=wrap;html=1;fontSize=16;" parent="BOGz9dv89ooAanh70R54-227" vertex="1">
          <mxGeometry width="120" height="40" as="geometry" />
        </mxCell>
        <mxCell id="BOGz9dv89ooAanh70R54-229" value="" style="endArrow=none;html=1;rounded=0;fontSize=12;startSize=8;endSize=8;curved=1;" parent="BOGz9dv89ooAanh70R54-227" edge="1">
          <mxGeometry width="50" height="50" relative="1" as="geometry">
            <mxPoint x="20" y="30" as="sourcePoint" />
            <mxPoint x="100" y="30" as="targetPoint" />
          </mxGeometry>
        </mxCell>
        <mxCell id="BOGz9dv89ooAanh70R54-230" value="" style="group" parent="1" vertex="1" connectable="0">
          <mxGeometry x="3073" y="2197" width="120" height="40" as="geometry" />
        </mxCell>
        <mxCell id="BOGz9dv89ooAanh70R54-231" value="Crew_ID" style="rounded=0;whiteSpace=wrap;html=1;fontSize=16;" parent="BOGz9dv89ooAanh70R54-230" vertex="1">
          <mxGeometry width="120" height="40" as="geometry" />
        </mxCell>
        <mxCell id="BOGz9dv89ooAanh70R54-232" value="Payload" style="text;html=1;strokeColor=none;fillColor=none;align=center;verticalAlign=middle;whiteSpace=wrap;rounded=0;fontSize=16;" parent="1" vertex="1">
          <mxGeometry x="2818" y="2156" width="166" height="30" as="geometry" />
        </mxCell>
        <mxCell id="BOGz9dv89ooAanh70R54-233" value="Min_Capacity" style="rounded=0;whiteSpace=wrap;html=1;fontSize=16;" parent="1" vertex="1">
          <mxGeometry x="1759" y="3912" width="121" height="40" as="geometry" />
        </mxCell>
        <mxCell id="BOGz9dv89ooAanh70R54-234" value="Max_Capacity" style="rounded=0;whiteSpace=wrap;html=1;fontSize=16;" parent="1" vertex="1">
          <mxGeometry x="1879" y="3912" width="120" height="40" as="geometry" />
        </mxCell>
        <mxCell id="BOGz9dv89ooAanh70R54-235" value="Status" style="rounded=0;whiteSpace=wrap;html=1;fontSize=16;" parent="1" vertex="1">
          <mxGeometry x="1880" y="4202" width="120" height="40" as="geometry" />
        </mxCell>
        <mxCell id="BOGz9dv89ooAanh70R54-236" value="Purpose" style="rounded=0;whiteSpace=wrap;html=1;fontSize=16;" parent="1" vertex="1">
          <mxGeometry x="1880" y="3282" width="120" height="40" as="geometry" />
        </mxCell>
        <mxCell id="BOGz9dv89ooAanh70R54-237" value="" style="endArrow=none;html=1;rounded=0;exitX=0.5;exitY=0;exitDx=0;exitDy=0;" parent="1" edge="1" source="pnm0OeJuqWLuh3S38QIp-2">
          <mxGeometry relative="1" as="geometry">
            <mxPoint x="1430" y="2520" as="sourcePoint" />
            <mxPoint x="1640" y="1322" as="targetPoint" />
            <Array as="points">
              <mxPoint x="1430" y="1322" />
            </Array>
          </mxGeometry>
        </mxCell>
        <mxCell id="BOGz9dv89ooAanh70R54-238" value="" style="group" parent="1" vertex="1" connectable="0">
          <mxGeometry x="2848" y="2197" width="120" height="40" as="geometry" />
        </mxCell>
        <mxCell id="BOGz9dv89ooAanh70R54-239" value="Mission_ID" style="rounded=0;whiteSpace=wrap;html=1;fontSize=16;" parent="BOGz9dv89ooAanh70R54-238" vertex="1">
          <mxGeometry width="120" height="40" as="geometry" />
        </mxCell>
        <mxCell id="BOGz9dv89ooAanh70R54-240" value="" style="endArrow=none;html=1;rounded=0;fontSize=12;startSize=8;endSize=8;curved=1;" parent="BOGz9dv89ooAanh70R54-238" edge="1">
          <mxGeometry width="50" height="50" relative="1" as="geometry">
            <mxPoint x="20" y="30" as="sourcePoint" />
            <mxPoint x="100" y="30" as="targetPoint" />
          </mxGeometry>
        </mxCell>
        <mxCell id="BOGz9dv89ooAanh70R54-241" value="" style="group" parent="1" vertex="1" connectable="0">
          <mxGeometry x="2963" y="2197" width="120" height="40" as="geometry" />
        </mxCell>
        <mxCell id="BOGz9dv89ooAanh70R54-242" value="Craft_ID" style="rounded=0;whiteSpace=wrap;html=1;fontSize=16;" parent="BOGz9dv89ooAanh70R54-241" vertex="1">
          <mxGeometry width="120" height="40" as="geometry" />
        </mxCell>
        <mxCell id="BOGz9dv89ooAanh70R54-243" value="" style="endArrow=none;html=1;rounded=0;fontSize=12;startSize=8;endSize=8;curved=1;" parent="BOGz9dv89ooAanh70R54-241" edge="1">
          <mxGeometry width="50" height="50" relative="1" as="geometry">
            <mxPoint x="20" y="30" as="sourcePoint" />
            <mxPoint x="100" y="30" as="targetPoint" />
          </mxGeometry>
        </mxCell>
        <mxCell id="BOGz9dv89ooAanh70R54-244" value="" style="endArrow=none;html=1;rounded=0;entryX=0.75;entryY=1;entryDx=0;entryDy=0;" parent="1" target="BOGz9dv89ooAanh70R54-239" edge="1">
          <mxGeometry relative="1" as="geometry">
            <mxPoint x="2800" y="2022" as="sourcePoint" />
            <mxPoint x="2970" y="2242" as="targetPoint" />
            <Array as="points">
              <mxPoint x="2800" y="2302" />
              <mxPoint x="2938" y="2302" />
            </Array>
          </mxGeometry>
        </mxCell>
        <mxCell id="BOGz9dv89ooAanh70R54-245" value="" style="endArrow=none;html=1;rounded=0;entryX=0.5;entryY=1;entryDx=0;entryDy=0;" parent="1" target="BOGz9dv89ooAanh70R54-242" edge="1">
          <mxGeometry relative="1" as="geometry">
            <mxPoint x="2940" y="2302" as="sourcePoint" />
            <mxPoint x="3130" y="2302" as="targetPoint" />
            <Array as="points">
              <mxPoint x="3023" y="2302" />
            </Array>
          </mxGeometry>
        </mxCell>
        <mxCell id="BOGz9dv89ooAanh70R54-246" value="Orbit_Type" style="rounded=0;whiteSpace=wrap;html=1;fontSize=16;" parent="1" vertex="1">
          <mxGeometry x="2120" y="3912" width="120" height="40" as="geometry" />
        </mxCell>
        <mxCell id="BOGz9dv89ooAanh70R54-247" value="Perigee" style="rounded=0;whiteSpace=wrap;html=1;fontSize=16;" parent="1" vertex="1">
          <mxGeometry x="2240" y="3912" width="120" height="40" as="geometry" />
        </mxCell>
        <mxCell id="BOGz9dv89ooAanh70R54-248" value="Apogee" style="rounded=0;whiteSpace=wrap;html=1;fontSize=16;" parent="1" vertex="1">
          <mxGeometry x="2360" y="3912" width="120" height="40" as="geometry" />
        </mxCell>
        <mxCell id="BOGz9dv89ooAanh70R54-249" value="Inclination" style="rounded=0;whiteSpace=wrap;html=1;fontSize=16;" parent="1" vertex="1">
          <mxGeometry x="2480" y="3912" width="120" height="40" as="geometry" />
        </mxCell>
        <mxCell id="BOGz9dv89ooAanh70R54-250" value="Period" style="rounded=0;whiteSpace=wrap;html=1;fontSize=16;" parent="1" vertex="1">
          <mxGeometry x="2600" y="3912" width="120" height="40" as="geometry" />
        </mxCell>
        <mxCell id="BOGz9dv89ooAanh70R54-251" value="TLE" style="rounded=0;whiteSpace=wrap;html=1;fontSize=16;" parent="1" vertex="1">
          <mxGeometry x="2720" y="3912" width="120" height="40" as="geometry" />
        </mxCell>
        <mxCell id="BOGz9dv89ooAanh70R54-252" value="Latitude" style="rounded=0;whiteSpace=wrap;html=1;fontSize=16;" parent="1" vertex="1">
          <mxGeometry x="2840" y="3912" width="120" height="40" as="geometry" />
        </mxCell>
        <mxCell id="BOGz9dv89ooAanh70R54-253" value="Longitude" style="rounded=0;whiteSpace=wrap;html=1;fontSize=16;" parent="1" vertex="1">
          <mxGeometry x="2960" y="3912" width="120" height="40" as="geometry" />
        </mxCell>
        <mxCell id="BOGz9dv89ooAanh70R54-254" value="Altitude" style="rounded=0;whiteSpace=wrap;html=1;fontSize=16;" parent="1" vertex="1">
          <mxGeometry x="3080" y="3912" width="120" height="40" as="geometry" />
        </mxCell>
        <mxCell id="BOGz9dv89ooAanh70R54-255" value="Speed" style="rounded=0;whiteSpace=wrap;html=1;fontSize=16;" parent="1" vertex="1">
          <mxGeometry x="3200" y="3912" width="120" height="40" as="geometry" />
        </mxCell>
        <mxCell id="BOGz9dv89ooAanh70R54-256" value="Role" style="rounded=0;whiteSpace=wrap;html=1;fontSize=16;" parent="1" vertex="1">
          <mxGeometry x="2505" y="2852" width="120" height="40" as="geometry" />
        </mxCell>
        <mxCell id="BOGz9dv89ooAanh70R54-257" value="&lt;u&gt;Mission_ID&lt;/u&gt;" style="rounded=0;whiteSpace=wrap;html=1;fontSize=16;" parent="1" vertex="1">
          <mxGeometry x="2120" y="1822" width="120" height="40" as="geometry" />
        </mxCell>
        <mxCell id="BOGz9dv89ooAanh70R54-258" value="" style="endArrow=none;html=1;rounded=0;exitX=0.5;exitY=0;exitDx=0;exitDy=0;" parent="1" source="BOGz9dv89ooAanh70R54-257" edge="1">
          <mxGeometry relative="1" as="geometry">
            <mxPoint x="2270" y="1822" as="sourcePoint" />
            <mxPoint x="2180" y="1762" as="targetPoint" />
          </mxGeometry>
        </mxCell>
        <mxCell id="BOGz9dv89ooAanh70R54-259" value="&lt;u&gt;Veh_ID&lt;/u&gt;" style="rounded=0;whiteSpace=wrap;html=1;fontSize=16;" parent="1" vertex="1">
          <mxGeometry x="1990" y="3122" width="110" height="40" as="geometry" />
        </mxCell>
        <mxCell id="BOGz9dv89ooAanh70R54-260" value="" style="endArrow=none;html=1;rounded=0;" parent="1" edge="1">
          <mxGeometry relative="1" as="geometry">
            <mxPoint x="1550" y="2472" as="sourcePoint" />
            <mxPoint x="1550" y="3382" as="targetPoint" />
          </mxGeometry>
        </mxCell>
        <mxCell id="BOGz9dv89ooAanh70R54-261" value="" style="endArrow=none;html=1;rounded=0;entryX=0.5;entryY=1;entryDx=0;entryDy=0;" parent="1" target="BOGz9dv89ooAanh70R54-99" edge="1">
          <mxGeometry relative="1" as="geometry">
            <mxPoint x="1550" y="3382" as="sourcePoint" />
            <mxPoint x="1710" y="3382" as="targetPoint" />
            <Array as="points">
              <mxPoint x="1700" y="3382" />
            </Array>
          </mxGeometry>
        </mxCell>
        <mxCell id="BOGz9dv89ooAanh70R54-262" value="" style="endArrow=none;html=1;rounded=0;entryX=0.5;entryY=1;entryDx=0;entryDy=0;" parent="1" target="BOGz9dv89ooAanh70R54-259" edge="1">
          <mxGeometry relative="1" as="geometry">
            <mxPoint x="1700" y="3382" as="sourcePoint" />
            <mxPoint x="1860" y="3382" as="targetPoint" />
            <Array as="points">
              <mxPoint x="2180" y="3382" />
              <mxPoint x="2180" y="3232" />
              <mxPoint x="2045" y="3232" />
            </Array>
          </mxGeometry>
        </mxCell>
        <mxCell id="BOGz9dv89ooAanh70R54-263" value="" style="group" parent="1" vertex="1" connectable="0">
          <mxGeometry x="1640" y="2412" width="120" height="40" as="geometry" />
        </mxCell>
        <mxCell id="BOGz9dv89ooAanh70R54-264" value="Veh_ID" style="rounded=0;whiteSpace=wrap;html=1;fontSize=16;" parent="BOGz9dv89ooAanh70R54-263" vertex="1">
          <mxGeometry width="120" height="40" as="geometry" />
        </mxCell>
        <mxCell id="BOGz9dv89ooAanh70R54-265" value="" style="endArrow=none;html=1;rounded=0;fontSize=12;startSize=8;endSize=8;curved=1;" parent="BOGz9dv89ooAanh70R54-263" edge="1">
          <mxGeometry width="50" height="50" relative="1" as="geometry">
            <mxPoint x="20" y="30" as="sourcePoint" />
            <mxPoint x="100" y="30" as="targetPoint" />
          </mxGeometry>
        </mxCell>
        <mxCell id="BOGz9dv89ooAanh70R54-266" value="Name" style="rounded=0;whiteSpace=wrap;html=1;fontSize=16;" parent="1" vertex="1">
          <mxGeometry x="1990" y="1552" width="120" height="40" as="geometry" />
        </mxCell>
        <mxCell id="BOGz9dv89ooAanh70R54-267" value="" style="endArrow=none;html=1;rounded=0;" parent="1" edge="1">
          <mxGeometry width="50" height="50" relative="1" as="geometry">
            <mxPoint x="1700" y="1762" as="sourcePoint" />
            <mxPoint x="1640" y="1982" as="targetPoint" />
            <Array as="points">
              <mxPoint x="1560" y="1762" />
              <mxPoint x="1560" y="1982" />
            </Array>
          </mxGeometry>
        </mxCell>
        <mxCell id="BOGz9dv89ooAanh70R54-268" value="" style="endArrow=none;html=1;rounded=0;entryX=0.5;entryY=1;entryDx=0;entryDy=0;" parent="1" target="BOGz9dv89ooAanh70R54-25" edge="1">
          <mxGeometry width="50" height="50" relative="1" as="geometry">
            <mxPoint x="1430" y="2202" as="sourcePoint" />
            <mxPoint x="1950" y="2212" as="targetPoint" />
            <Array as="points">
              <mxPoint x="1940" y="2202" />
            </Array>
          </mxGeometry>
        </mxCell>
        <mxCell id="BOGz9dv89ooAanh70R54-269" value="Name" style="rounded=0;whiteSpace=wrap;html=1;fontSize=16;" parent="1" vertex="1">
          <mxGeometry x="2000" y="2102" width="120" height="40" as="geometry" />
        </mxCell>
        <mxCell id="BOGz9dv89ooAanh70R54-270" value="Status" style="rounded=0;whiteSpace=wrap;html=1;fontSize=16;" parent="1" vertex="1">
          <mxGeometry x="2480" y="2412" width="120" height="40" as="geometry" />
        </mxCell>
        <mxCell id="BOGz9dv89ooAanh70R54-271" value="Location" style="rounded=0;whiteSpace=wrap;html=1;fontSize=16;" parent="1" vertex="1">
          <mxGeometry x="2600" y="2412" width="120" height="40" as="geometry" />
        </mxCell>
        <mxCell id="BOGz9dv89ooAanh70R54-272" value="" style="group" parent="1" vertex="1" connectable="0">
          <mxGeometry x="3188" y="2197" width="120" height="40" as="geometry" />
        </mxCell>
        <mxCell id="BOGz9dv89ooAanh70R54-273" value="Rover_ID" style="rounded=0;whiteSpace=wrap;html=1;fontSize=16;" parent="BOGz9dv89ooAanh70R54-272" vertex="1">
          <mxGeometry width="120" height="40" as="geometry" />
        </mxCell>
        <mxCell id="BOGz9dv89ooAanh70R54-274" value="Norad_ID" style="rounded=0;whiteSpace=wrap;html=1;fontSize=16;" parent="1" vertex="1">
          <mxGeometry x="1759.5" y="3612" width="120" height="40" as="geometry" />
        </mxCell>
        <mxCell id="BOGz9dv89ooAanh70R54-275" value="Norad_ID" style="rounded=0;whiteSpace=wrap;html=1;fontSize=16;" parent="1" vertex="1">
          <mxGeometry x="2000" y="3912" width="125" height="40" as="geometry" />
        </mxCell>
        <mxCell id="BOGz9dv89ooAanh70R54-276" style="edgeStyle=orthogonalEdgeStyle;rounded=0;orthogonalLoop=1;jettySize=auto;html=1;exitX=0.5;exitY=1;exitDx=0;exitDy=0;" parent="1" source="BOGz9dv89ooAanh70R54-231" edge="1">
          <mxGeometry relative="1" as="geometry">
            <mxPoint x="2070" y="3037" as="targetPoint" />
            <Array as="points">
              <mxPoint x="3133" y="3082" />
              <mxPoint x="2070" y="3082" />
              <mxPoint x="2070" y="3037" />
            </Array>
          </mxGeometry>
        </mxCell>
        <mxCell id="BOGz9dv89ooAanh70R54-277" value="Scope" style="rounded=0;whiteSpace=wrap;html=1;fontSize=16;" parent="1" vertex="1">
          <mxGeometry x="1880" y="3452" width="120" height="40" as="geometry" />
        </mxCell>
        <mxCell id="pnm0OeJuqWLuh3S38QIp-1" value="" style="group" vertex="1" connectable="0" parent="1">
          <mxGeometry x="1370" y="2552" width="120" height="40" as="geometry" />
        </mxCell>
        <mxCell id="pnm0OeJuqWLuh3S38QIp-2" value="Per_ID" style="rounded=0;whiteSpace=wrap;html=1;fontSize=16;" vertex="1" parent="pnm0OeJuqWLuh3S38QIp-1">
          <mxGeometry width="120" height="40" as="geometry" />
        </mxCell>
        <mxCell id="pnm0OeJuqWLuh3S38QIp-3" value="" style="endArrow=none;html=1;rounded=0;fontSize=12;startSize=8;endSize=8;curved=1;" edge="1" parent="pnm0OeJuqWLuh3S38QIp-1">
          <mxGeometry width="50" height="50" relative="1" as="geometry">
            <mxPoint x="20" y="30" as="sourcePoint" />
            <mxPoint x="100" y="30" as="targetPoint" />
          </mxGeometry>
        </mxCell>
        <mxCell id="pnm0OeJuqWLuh3S38QIp-5" value="" style="edgeStyle=segmentEdgeStyle;endArrow=classic;html=1;curved=0;rounded=0;endSize=8;startSize=8;fontSize=12;entryX=0;entryY=0.5;entryDx=0;entryDy=0;" edge="1" parent="1" target="BOGz9dv89ooAanh70R54-110">
          <mxGeometry width="50" height="50" relative="1" as="geometry">
            <mxPoint x="1490" y="2592" as="sourcePoint" />
            <mxPoint x="1490" y="2592" as="targetPoint" />
            <Array as="points">
              <mxPoint x="1490" y="2572" />
            </Array>
          </mxGeometry>
        </mxCell>
        <mxCell id="pnm0OeJuqWLuh3S38QIp-6" value="Ceo" style="text;html=1;strokeColor=none;fillColor=none;align=center;verticalAlign=middle;whiteSpace=wrap;rounded=0;fontSize=16;" vertex="1" parent="1">
          <mxGeometry x="1340" y="2512" width="60" height="30" as="geometry" />
        </mxCell>
      </root>
    </mxGraphModel>
  </diagram>
</mxfile>
